<svg id="グループ_62" data-name="グループ 62" xmlns="http://www.w3.org/2000/svg" xmlns:xlink="http://www.w3.org/1999/xlink" width="35.419" height="35.396" viewBox="0 0 35.419 35.396">
  <defs>
    <clipPath id="clip-path">
      <rect id="長方形_63" data-name="長方形 63" width="35.419" height="35.396" fill="#fff"/>
    </clipPath>
  </defs>
  <g id="グループ_60" data-name="グループ 60" clip-path="url(#clip-path)">
    <path id="パス_143" data-name="パス 143" d="M20.2,0c.219.065.443.118.658.2A3.063,3.063,0,0,1,22.9,3.051q.027,6.31.023,12.621a3.059,3.059,0,0,1-3.24,3.162q-4.166,0-8.333-.026a1.461,1.461,0,0,0-.977.315c-1.083.84-2.192,1.647-3.284,2.477a1.072,1.072,0,0,1-1.828-.911c.015-.609,0-1.219,0-1.875-.695,0-1.373.043-2.044-.014a4.343,4.343,0,0,1-1.493-.343A2.849,2.849,0,0,1,.017,15.779C-.008,11.538,0,7.3.011,3.055A3.087,3.087,0,0,1,2.44.076C2.529.055,2.615.025,2.7,0ZM10.449,10.031c0,.1,0,.208,0,.311a1.048,1.048,0,0,0,.968,1.068,1.071,1.071,0,0,0,1.11-.929.5.5,0,0,1,.237-.306,3.046,3.046,0,0,0,1.821-2.693,2.937,2.937,0,0,0-1.617-2.877,3.126,3.126,0,0,0-3.37.206,1.01,1.01,0,0,0-.314,1.374,1.042,1.042,0,0,0,1.353.4,4.306,4.306,0,0,1,.533-.238,1.015,1.015,0,0,1,1.307.7,1.027,1.027,0,0,1-.739,1.286c-1.015.3-1.29.658-1.29,1.7m.972,4.562a1.036,1.036,0,1,0-1.04-1.024,1.048,1.048,0,0,0,1.04,1.024" transform="translate(0)" fill="#fff"/>
    <path id="パス_144" data-name="パス 144" d="M158.432,173.988a6.654,6.654,0,0,1-.25.786,3.006,3.006,0,0,1-2.807,1.9c-1.29.037-2.581.009-3.872.01h-.4a6.249,6.249,0,0,0,0,.784,1.1,1.1,0,0,1-1.752,1.073c-1.106-.613-2.254-1.151-3.391-1.706a1.483,1.483,0,0,0-.622-.145c-2.167-.01-4.333,0-6.5-.007a3.121,3.121,0,0,1-3.3-3.289q0-4.391,0-8.782v-.357h4.611l.083.092a.828.828,0,0,0-.233.121.979.979,0,0,0-.232,1.113,1.013,1.013,0,0,0,.934.656c.092.006.184,0,.276,0H152.94a2.127,2.127,0,0,0,.447-.027,1.034,1.034,0,0,0-.25-2.046q-3.181-.007-6.362,0h-2.757c3.043-1.023,4.225-3.17,3.979-6.225h7.035a3.109,3.109,0,0,1,3.355,2.6.511.511,0,0,0,.045.093Zm-11.518-3.6q3.075,0,6.15,0a1.053,1.053,0,0,0,1.042-.6,1.029,1.029,0,0,0-.988-1.476c-1.7-.006-3.409,0-5.113,0q-3.593,0-7.186,0a1.04,1.04,0,1,0-.02,2.074c2.038.006,4.077,0,6.115,0" transform="translate(-123.013 -143.347)" fill="#fff"/>
  </g>
</svg>
