<svg id="グループ_82" data-name="グループ 82" xmlns="http://www.w3.org/2000/svg" xmlns:xlink="http://www.w3.org/1999/xlink" width="71" height="71" viewBox="0 0 71 71">
  <defs>
    <clipPath id="clip-path">
      <rect id="長方形_63" data-name="長方形 63" width="71" height="71" fill="#2aa8e6"/>
    </clipPath>
  </defs>
  <g id="グループ_60" data-name="グループ 60" clip-path="url(#clip-path)">
    <path id="パス_143" data-name="パス 143" d="M40.5,0c.44.13.889.237,1.319.395A6.143,6.143,0,0,1,45.9,6.121q.054,12.658.046,25.316a6.134,6.134,0,0,1-6.5,6.342q-8.352.009-16.7-.053a2.927,2.927,0,0,0-1.958.632c-2.171,1.686-4.394,3.3-6.582,4.968A2.149,2.149,0,0,1,10.541,41.5c.029-1.222.007-2.445.007-3.761-1.393,0-2.753.086-4.1-.028a8.7,8.7,0,0,1-2.993-.688,5.714,5.714,0,0,1-3.424-5.37C-.017,23.144,0,14.635.022,6.127A6.192,6.192,0,0,1,4.892.152c.177-.042.35-.1.526-.152ZM20.947,20.12c0,.208,0,.416,0,.624a2.1,2.1,0,0,0,1.941,2.142,2.148,2.148,0,0,0,2.225-1.863,1,1,0,0,1,.475-.613,6.11,6.11,0,0,0,3.65-5.4A5.891,5.891,0,0,0,26,9.237a6.263,6.263,0,0,0-6.756.414,2.026,2.026,0,0,0-.629,2.756,2.089,2.089,0,0,0,2.713.809,8.628,8.628,0,0,1,1.069-.478,2.034,2.034,0,0,1,2.619,1.4,2.06,2.06,0,0,1-1.481,2.58c-2.034.593-2.585,1.319-2.585,3.407M22.9,29.271a2.079,2.079,0,1,0-2.085-2.054A2.1,2.1,0,0,0,22.9,29.271" transform="translate(0)" fill="#2aa8e6"/>
    <path id="パス_144" data-name="パス 144" d="M181.432,190.13a13.358,13.358,0,0,1-.5,1.576,6.025,6.025,0,0,1-5.626,3.815c-2.585.075-5.174.019-7.762.02h-.809a12.55,12.55,0,0,0,.01,1.572c.245,1.85-1.471,3.285-3.513,2.152-2.217-1.23-4.519-2.309-6.8-3.422a2.971,2.971,0,0,0-1.247-.29c-4.343-.021-8.686-.009-13.029-.014a6.258,6.258,0,0,1-6.618-6.6q0-8.808,0-17.615v-.715h9.243l.167.184a1.659,1.659,0,0,0-.466.244,1.964,1.964,0,0,0-.466,2.232,2.031,2.031,0,0,0,1.871,1.315c.184.013.37,0,.554,0q11.99,0,23.98,0a4.261,4.261,0,0,0,.9-.053,2.074,2.074,0,0,0-.5-4.1q-6.376-.014-12.752,0h-5.527c6.1-2.052,8.469-6.359,7.977-12.487h14.1c3.654,0,5.8,1.671,6.725,5.225a1.026,1.026,0,0,0,.09.186Zm-23.088-7.215q6.164,0,12.328,0a2.111,2.111,0,0,0,2.088-1.2,2.065,2.065,0,0,0-1.98-2.96c-3.417-.013-6.833,0-10.25,0q-7.2,0-14.405,0a2.086,2.086,0,1,0-.039,4.161c4.086.012,8.172,0,12.258,0" transform="translate(-110.432 -128.667)" fill="#2aa8e6"/>
  </g>
</svg>
