<svg id="グループ_47" data-name="グループ 47" xmlns="http://www.w3.org/2000/svg" xmlns:xlink="http://www.w3.org/1999/xlink" width="66" height="52.302" viewBox="0 0 66 52.302">
  <defs>
    <clipPath id="clip-path">
      <rect id="長方形_50" data-name="長方形 50" width="66" height="52.302" fill="#2aa8e6"/>
    </clipPath>
  </defs>
  <g id="グループ_46" data-name="グループ 46" clip-path="url(#clip-path)">
    <path id="パス_133" data-name="パス 133" d="M95.186,26.765c1.376-.684,2.746-1.293,4.043-2.023a32.167,32.167,0,0,0,8.252-7.007c1.752-1.986,3.461-4.008,5.178-6.024a2.01,2.01,0,0,1,2.016-.834,1.961,1.961,0,0,1,1.586,1.54q4.843,15.723,9.71,31.439a1.907,1.907,0,0,1-.419,2.138,2.038,2.038,0,0,1-2.158.387c-3.183-.931-6.356-1.9-9.563-2.748a28.656,28.656,0,0,0-13.221-.579,2.8,2.8,0,0,1-.377.02L95.186,26.765" transform="translate(-78.254 -8.976)" fill="#2aa8e6"/>
    <path id="パス_134" data-name="パス 134" d="M13.714,108.394l5.051,16.32c-.071.053-.117.11-.176.127-2.505.72-5,1.494-7.521,2.143a8.767,8.767,0,0,1-11.054-7.8,8.226,8.226,0,0,1,5.079-8.112c2.782-1.081,5.719-1.79,8.622-2.674" transform="translate(0 -89.773)" fill="#2aa8e6"/>
    <path id="パス_135" data-name="パス 135" d="M78.46,223.453,84.2,221.8c.034.091.059.148.078.208,1.053,3.4,2.122,6.8,3.15,10.2a2.9,2.9,0,0,1-2.034,3.661A2.99,2.99,0,0,1,81.669,234c-1.107-3.451-2.151-6.922-3.219-10.384a.613.613,0,0,1,.01-.165" transform="translate(-64.492 -183.696)" fill="#2aa8e6"/>
    <path id="パス_136" data-name="パス 136" d="M312.792,72.428a1.668,1.668,0,0,1-1.425-1.516,1.574,1.574,0,0,1,1.232-1.623c1.648-.494,3.305-.96,4.959-1.436.551-.159,1.1-.327,1.656-.469a1.672,1.672,0,0,1,2.132,1.027,1.553,1.553,0,0,1-1.13,2.019c-2.24.671-4.491,1.307-6.743,1.94a2.846,2.846,0,0,1-.682.057" transform="translate(-255.979 -55.748)" fill="#2aa8e6"/>
    <path id="パス_137" data-name="パス 137" d="M282.687,5.869a4.463,4.463,0,0,1,.483-.67Q285.39,2.9,287.639.635a1.693,1.693,0,0,1,2.468-.183,1.562,1.562,0,0,1-.021,2.346q-2.284,2.367-4.607,4.7a1.651,1.651,0,0,1-2.791-1.63" transform="translate(-232.347 0)" fill="#2aa8e6"/>
    <path id="パス_138" data-name="パス 138" d="M319.4,140.527c-1.165-.268-2.34-.5-3.492-.815a1.478,1.478,0,0,1-1.1-1.577,1.546,1.546,0,0,1,1.277-1.451,2.406,2.406,0,0,1,.918.027q3.178.708,6.346,1.456a1.614,1.614,0,0,1,1.406,1.979,1.687,1.687,0,0,1-2.193,1.134c-1.062-.225-2.116-.483-3.173-.726l.006-.026" transform="translate(-258.811 -113.176)" fill="#2aa8e6"/>
    <path id="パス_139" data-name="パス 139" d="M251.243,80.128a4.768,4.768,0,0,1,5.412,3.06,4.6,4.6,0,0,1-2.684,5.755l-2.727-8.815" transform="translate(-206.552 -66.269)" fill="#2aa8e6"/>
  </g>
</svg>
