<svg xmlns="http://www.w3.org/2000/svg" xmlns:xlink="http://www.w3.org/1999/xlink" width="40" height="31" viewBox="0 0 40 31">
  <defs>
    <clipPath id="clip-path">
      <rect id="長方形_50" data-name="長方形 50" width="40" height="31" transform="translate(0 0.43)" fill="#2aa8e6"/>
    </clipPath>
  </defs>
  <g id="グループ_47" data-name="グループ 47" transform="translate(0 -0.43)">
    <g id="グループ_46" data-name="グループ 46" clip-path="url(#clip-path)">
      <path id="パス_133" data-name="パス 133" d="M95.186,20.388c.825-.41,1.646-.775,2.424-1.213a19.288,19.288,0,0,0,4.948-4.2c1.051-1.191,2.075-2.4,3.1-3.612a1.205,1.205,0,0,1,1.209-.5,1.176,1.176,0,0,1,.951.923q2.9,9.428,5.822,18.851a1.143,1.143,0,0,1-.252,1.282,1.222,1.222,0,0,1-1.294.232c-1.909-.558-3.811-1.139-5.734-1.648a17.183,17.183,0,0,0-7.928-.347,1.681,1.681,0,0,1-.226.012l-3.025-9.778" transform="translate(-85.033 -9.722)" fill="#2aa8e6"/>
      <path id="パス_134" data-name="パス 134" d="M8.223,108.394l3.028,9.786c-.043.032-.07.066-.106.076-1.5.432-3,.9-4.51,1.285a5.257,5.257,0,0,1-6.628-4.679A4.932,4.932,0,0,1,3.053,110c1.668-.648,3.429-1.073,5.17-1.6" transform="translate(0 -97.228)" fill="#2aa8e6"/>
      <path id="パス_135" data-name="パス 135" d="M78.455,222.791,81.9,221.8c.021.055.036.089.047.124.631,2.039,1.272,4.075,1.889,6.118a1.741,1.741,0,0,1-1.219,2.195,1.793,1.793,0,0,1-2.235-1.12c-.664-2.069-1.29-4.15-1.93-6.227a.368.368,0,0,1,.006-.1" transform="translate(-70.079 -198.951)" fill="#2aa8e6"/>
      <path id="パス_136" data-name="パス 136" d="M312.221,70.38a1,1,0,0,1-.854-.909.944.944,0,0,1,.739-.973c.988-.3,1.982-.576,2.974-.861.331-.1.66-.2.993-.281a1,1,0,0,1,1.279.616.931.931,0,0,1-.677,1.21c-1.343.4-2.693.783-4.043,1.163a1.707,1.707,0,0,1-.409.034" transform="translate(-278.154 -60.378)" fill="#2aa8e6"/>
      <path id="パス_137" data-name="パス 137" d="M282.66,3.519a2.676,2.676,0,0,1,.29-.4q1.331-1.376,2.679-2.736a1.015,1.015,0,0,1,1.48-.11.937.937,0,0,1-.013,1.407q-1.37,1.42-2.762,2.819a.99.99,0,0,1-1.674-.977" transform="translate(-252.475 0)" fill="#2aa8e6"/>
      <path id="パス_138" data-name="パス 138" d="M317.561,138.975c-.7-.161-1.4-.3-2.094-.489a.886.886,0,0,1-.657-.946.927.927,0,0,1,.766-.87,1.443,1.443,0,0,1,.55.016q1.905.425,3.805.873a.968.968,0,0,1,.843,1.187,1.011,1.011,0,0,1-1.315.68c-.637-.135-1.269-.289-1.9-.435l0-.016" transform="translate(-281.231 -122.575)" fill="#2aa8e6"/>
      <path id="パス_139" data-name="パス 139" d="M251.243,80.082a2.859,2.859,0,0,1,3.245,1.835,2.755,2.755,0,0,1-1.609,3.451l-1.635-5.286" transform="translate(-224.445 -71.772)" fill="#2aa8e6"/>
    </g>
  </g>
</svg>
