<svg id="グループ_38" data-name="グループ 38" xmlns="http://www.w3.org/2000/svg" xmlns:xlink="http://www.w3.org/1999/xlink" width="32" height="32" viewBox="0 0 32 32">
  <defs>
    <clipPath id="clip-path">
      <rect id="長方形_45" data-name="長方形 45" width="32" height="32" fill="#fff"/>
    </clipPath>
  </defs>
  <g id="グループ_37" data-name="グループ 37" clip-path="url(#clip-path)">
    <path id="パス_118" data-name="パス 118" d="M32.179,6.094V26.58H21.4a4.773,4.773,0,0,0-1.732-3.726,5.515,5.515,0,0,0-3.851-1.107,4.784,4.784,0,0,0-4.842,4.825H.221V6.127H11a5.277,5.277,0,0,1,1.9-4.957A5.141,5.141,0,0,1,16.418,0a5.323,5.323,0,0,1,5,6.092ZM19.634,16.6a3.451,3.451,0,0,0-3.367-3.545A3.467,3.467,0,1,0,19.634,16.6M16.206,1.68a3.621,3.621,0,0,0-3.591,3.6A3.667,3.667,0,0,0,16.234,8.86a3.59,3.59,0,0,0-.028-7.179" transform="translate(-0.199 0)" fill="#fff"/>
    <path id="パス_119" data-name="パス 119" d="M0,287.875v-3.546H32V286.9c0,.975,0,.975-.975.975H0Z" transform="translate(0 -255.875)" fill="#fff"/>
    <path id="パス_120" data-name="パス 120" d="M137.152,31.978a2.554,2.554,0,0,1,.033-5.108,2.6,2.6,0,0,1,2.544,2.554,2.563,2.563,0,0,1-2.577,2.554M135.341,29.3a1.207,1.207,0,0,0,1.534-.4,1.059,1.059,0,0,0,.07-1.308,1.735,1.735,0,0,0-1.6,1.712" transform="translate(-121.156 -24.181)" fill="#fff"/>
  </g>
</svg>
