<svg id="グループ_59" data-name="グループ 59" xmlns="http://www.w3.org/2000/svg" width="37.878" height="36.197" viewBox="0 0 37.878 36.197">
  <path id="パス_126" data-name="パス 126" d="M76.838,263.291l4.082,8.76c1.308-.608,2.591-1.184,3.855-1.8a23.173,23.173,0,0,1,4.991-1.518c2.572-.594,5.161-1.113,7.729-1.719a6.678,6.678,0,0,0,2.066-.821c3.365-2.17,6.693-4.4,10.036-6.6a1.407,1.407,0,0,0,.727-1.467,1.35,1.35,0,0,0-2.065-.935c-1.8,1.035-3.619,2.033-5.431,3.048-1.463.819-2.936,1.624-4.386,2.466a4.025,4.025,0,0,1-2.466.563c-1.9-.162-3.816-.223-5.725-.321-.749-.038-1.181-.3-1.334-.822-.166-.569.033-1.008.68-1.461q2.163-1.516,4.331-3.026c.1-.067.189-.135.283-.2a1.746,1.746,0,0,0,.663-2.34,1.888,1.888,0,0,0-2.5-.459c-1.313.749-2.634,1.486-3.916,2.284a12.97,12.97,0,0,1-4.572,1.878,5.626,5.626,0,0,0-3.226,1.869,10.408,10.408,0,0,1-3.256,2.338l-.565.285" transform="translate(-72.465 -236.111)" fill="#2aa8e6"/>
  <path id="パス_127" data-name="パス 127" d="M301.206,265.219c1.248-.7,2.376-1.327,3.5-1.962a.543.543,0,0,0,.243-.227c.285-.741.6-1.475.814-2.237a1.226,1.226,0,0,0-.925-1.443,1.259,1.259,0,0,0-1.627.663c-.31.695-.564,1.414-.836,2.125-.377.985-.749,1.972-1.169,3.082" transform="translate(-274.404 -240.522)" fill="#2aa8e6"/>
  <path id="パス_128" data-name="パス 128" d="M33.091,352.243c2.525,5.519,3.946,5.337,6.625,7.269l-3.968-8.26Z" transform="translate(-33.091 -323.315)" fill="#2aa8e6"/>
  <path id="パス_129" data-name="パス 129" d="M89.719,83.534q0-3.45,0-6.9a1.581,1.581,0,0,1,1.728-1.726A58.272,58.272,0,0,0,105,73.2a53.482,53.482,0,0,1,12.375-1.42,1.578,1.578,0,0,1,1.652,1.643q.005,7,0,14a1.562,1.562,0,0,1-1.628,1.629,53.815,53.815,0,0,0-7.494.535c-1.966.313-3.926.684-5.866,1.129a58.21,58.21,0,0,1-12.6,1.468,1.59,1.59,0,0,1-1.717-1.709q0-3.466,0-6.933m2.093-.031q0,2.42,0,4.839c0,.453.12.6.569.682a.537.537,0,0,1,.474.466c.09.433.229.555.671.529,1.087-.063,2.176-.12,3.261-.22a72.483,72.483,0,0,0,7.942-1.375q3.116-.64,6.271-1.082c1.4-.2,2.821-.229,4.234-.329.42-.03.592-.162.65-.576a.565.565,0,0,1,.539-.516.519.519,0,0,0,.507-.6q0-4.888,0-9.776a.519.519,0,0,0-.506-.6.573.573,0,0,1-.547-.545.508.508,0,0,0-.564-.473c-.142,0-.283.007-.425.013a51.291,51.291,0,0,0-9.31,1.266,59.842,59.842,0,0,1-12.1,1.736c-.39.01-.561.175-.617.575a.551.551,0,0,1-.474.507c-.482.1-.573.217-.573.706q0,2.387,0,4.774" transform="translate(-84.058 -71.776)" fill="#2aa8e6"/>
  <path id="パス_130" data-name="パス 130" d="M144.168,110.276v-5.254a3.707,3.707,0,0,1-.5-.338c-.148-.139-.248-.329-.39-.477a.39.39,0,0,0-.267-.107,46.321,46.321,0,0,0-8.668,1.163,64.36,64.36,0,0,1-12,1.81c-.107.005-.223.117-.311.2-.239.231-.47.47-.693.715-.083.09-.193.208-.193.313q-.016,4.317,0,8.634a.521.521,0,0,0,.176.294,5.139,5.139,0,0,1,.622.606.427.427,0,0,0,.444.216,55.343,55.343,0,0,0,9.941-1.474,50.41,50.41,0,0,1,7.013-1.208c1.193-.115,2.389-.193,3.585-.281a.449.449,0,0,0,.378-.234,3.087,3.087,0,0,1,.667-.69.388.388,0,0,0,.2-.357c-.006-1.177,0-2.355,0-3.532m-19.891,3.93a1.568,1.568,0,1,1,1.572-1.546,1.571,1.571,0,0,1-1.572,1.546m10.757-2.178a.448.448,0,0,1,.5.5c0,.354-.2.484-.5.484h-1.762v1.278c0,.522-.27.709-.774.709-.541,0-.755-.243-.755-.709v-1.278h-1.762c-.355,0-.5-.168-.5-.494a.448.448,0,0,1,.5-.494h1.762v-.42l-.121-.187h-1.641a.494.494,0,1,1,0-.988h1.034l-1.184-1.93c-.2-.326-.261-.429-.261-.634a.8.8,0,0,1,.839-.661c.326,0,.438.2.625.5l1.473,2.5,1.473-2.5c.187-.317.3-.5.634-.5a.794.794,0,0,1,.83.68c0,.186-.075.307-.261.615L134,110.434h1.034c.289,0,.5.1.5.494a.442.442,0,0,1-.5.494h-1.641l-.121.187v.42Zm5.992-.962a1.568,1.568,0,1,1,1.571-1.548,1.57,1.57,0,0,1-1.571,1.548" transform="translate(-112.34 -100.868)" fill="#2aa8e6"/>
  <path id="パス_131" data-name="パス 131" d="M315.909,153.427a.521.521,0,0,1-1.041-.017.521.521,0,1,1,1.041.017" transform="translate(-286.7 -144.787)" fill="#2aa8e6"/>
  <path id="パス_132" data-name="パス 132" d="M148.375,184.848a.521.521,0,0,1-1.041-.043.521.521,0,1,1,1.041.043" transform="translate(-135.913 -173.055)" fill="#2aa8e6"/>
</svg>
