<svg xmlns="http://www.w3.org/2000/svg" xmlns:xlink="http://www.w3.org/1999/xlink" width="33" height="31" viewBox="0 0 33 31">
  <defs>
    <clipPath id="clip-path">
      <rect id="長方形_51" data-name="長方形 51" width="33" height="31" transform="translate(0.267 0.361)" fill="#2aa8e6"/>
    </clipPath>
  </defs>
  <g id="グループ_49" data-name="グループ 49" transform="translate(-0.267 -0.361)">
    <g id="グループ_48" data-name="グループ 48" clip-path="url(#clip-path)">
      <path id="パス_140" data-name="パス 140" d="M0,10.127A2.085,2.085,0,0,1,1.127,8.592,3.087,3.087,0,0,1,2.27,8.357c1.934-.023,3.869-.011,5.8-.011h.452c-.206-.163-.346-.277-.489-.386A4.415,4.415,0,0,1,6.164,4.315,4.256,4.256,0,0,1,8.876.3a4.172,4.172,0,0,1,4.857,1.333,12.781,12.781,0,0,1,2.512,5.125,9.292,9.292,0,0,1,.119,1.262.566.566,0,0,0,.078.316.662.662,0,0,0,.042-.183,6.457,6.457,0,0,1,.538-2.828A12.931,12.931,0,0,1,19.3,1.412,4.006,4.006,0,0,1,23.72.222a3.987,3.987,0,0,1,2.9,3.44,4.314,4.314,0,0,1-1.756,4.255,2.528,2.528,0,0,0-.464.43h.334c1.935,0,3.87.034,5.8-.011a2.17,2.17,0,0,1,2.315,2.351c-.037.914-.005,1.83-.008,2.745a1.068,1.068,0,0,1-1.2,1.191q-5.115,0-10.229,0H18.489V10.46H14.383v4.164h-.444c-4.179,0-8.359-.008-12.538.009A1.332,1.332,0,0,1,0,13.854Zm8.214-5.8a2.278,2.278,0,0,0,.762,1.7A10.43,10.43,0,0,0,12.115,7.9a6.887,6.887,0,0,0,1.381.394c1.009.17.941-.155.77-.921a10.5,10.5,0,0,0-2.2-4.517A2.15,2.15,0,0,0,9.624,2.22,2.3,2.3,0,0,0,8.214,4.331M22.391,2.087a1.991,1.991,0,0,0-1.622.788,18.281,18.281,0,0,0-1.345,2.132,7.487,7.487,0,0,0-.9,2.734c-.051.532.063.658.587.58A9.412,9.412,0,0,0,23.945,5.95a2.21,2.21,0,0,0,.516-2.489,2.2,2.2,0,0,0-2.07-1.375" transform="translate(0 0)" fill="#2aa8e6"/>
      <path id="パス_141" data-name="パス 141" d="M37.851,204.364v14.627H37.5q-4.826,0-9.653,0a2.113,2.113,0,0,1-2.3-2.328q0-5.964,0-11.929v-.37Z" transform="translate(-23.495 -187.63)" fill="#2aa8e6"/>
      <path id="パス_142" data-name="パス 142" d="M242.484,204.454v.282q0,6.046,0,12.093a2.074,2.074,0,0,1-1.521,2.154,2.542,2.542,0,0,1-.664.088q-4.938.008-9.877,0c-.073,0-.145-.007-.235-.012V204.454Z" transform="translate(-211.692 -187.712)" fill="#2aa8e6"/>
    </g>
  </g>
</svg>
