<svg id="グループ_95" data-name="グループ 95" xmlns="http://www.w3.org/2000/svg" xmlns:xlink="http://www.w3.org/1999/xlink" width="111" height="111" viewBox="0 0 111 111">
  <defs>
    <clipPath id="clip-path">
      <rect id="長方形_49" data-name="長方形 49" width="111" height="111" fill="#2aa8e6"/>
    </clipPath>
  </defs>
  <g id="グループ_44" data-name="グループ 44" clip-path="url(#clip-path)">
    <path id="パス_125" data-name="パス 125" d="M0,55.244A55.5,55.5,0,1,0,55.59,0,55.548,55.548,0,0,0,0,55.244" transform="translate(0 0)" fill="#fff"/>
    <path id="パス_126" data-name="パス 126" d="M76.838,275.061,86.3,295.369c3.034-1.409,6.007-2.744,8.938-4.164,3.677-1.781,7.64-2.611,11.571-3.518,5.963-1.376,11.966-2.581,17.921-3.985a15.486,15.486,0,0,0,4.79-1.9c7.8-5.031,15.518-10.194,23.27-15.3a3.261,3.261,0,0,0,1.685-3.4,3.131,3.131,0,0,0-4.788-2.168c-4.171,2.4-8.392,4.714-12.592,7.065-3.393,1.9-6.807,3.765-10.17,5.716a9.334,9.334,0,0,1-5.719,1.306c-4.414-.375-8.848-.518-13.275-.745-1.737-.089-2.739-.692-3.093-1.907-.385-1.32.077-2.337,1.576-3.388q5.016-3.515,10.043-7.015c.221-.154.439-.314.656-.474,1.993-1.473,2.638-3.75,1.538-5.424A4.379,4.379,0,0,0,112.86,255c-3.044,1.736-6.106,3.445-9.081,5.295a30.073,30.073,0,0,1-10.6,4.353,13.045,13.045,0,0,0-7.481,4.332,24.132,24.132,0,0,1-7.549,5.42l-1.311.66" transform="translate(-59.029 -195.416)" fill="#2aa8e6"/>
    <path id="パス_127" data-name="パス 127" d="M301.206,273.068c2.894-1.619,5.509-3.077,8.116-4.549a1.26,1.26,0,0,0,.564-.527c.661-1.717,1.387-3.42,1.886-5.186.409-1.445-.573-2.8-2.145-3.346A2.92,2.92,0,0,0,305.855,261c-.718,1.61-1.307,3.278-1.938,4.926-.874,2.284-1.736,4.573-2.711,7.146" transform="translate(-231.393 -199.181)" fill="#2aa8e6"/>
    <path id="パス_128" data-name="パス 128" d="M33.091,353.549c5.855,12.794,9.148,12.373,15.36,16.852l-9.2-19.149Z" transform="translate(-25.421 -269.852)" fill="#2aa8e6"/>
    <path id="パス_129" data-name="パス 129" d="M89.72,99.035q0-8,0-16a3.665,3.665,0,0,1,4.006-4,135.129,135.129,0,0,0,31.418-3.969,124.022,124.022,0,0,1,28.693-3.292,3.658,3.658,0,0,1,3.832,3.81q.012,16.224,0,32.448a3.621,3.621,0,0,1-3.774,3.776,124.793,124.793,0,0,0-17.376,1.239c-4.558.725-9.1,1.586-13.6,2.617a134.986,134.986,0,0,1-29.216,3.4,3.687,3.687,0,0,1-3.98-3.962q-.006-8.036,0-16.072m4.854-.072q0,5.609,0,11.218c0,1.051.279,1.4,1.32,1.58a1.246,1.246,0,0,1,1.1,1.08c.209,1,.531,1.287,1.556,1.228,2.521-.147,5.045-.279,7.56-.51a168.089,168.089,0,0,0,18.415-3.189q7.224-1.484,14.539-2.508c3.244-.455,6.542-.532,9.817-.762.974-.069,1.372-.377,1.507-1.336a1.309,1.309,0,0,1,1.25-1.2,1.2,1.2,0,0,0,1.176-1.39q.008-11.332,0-22.664a1.2,1.2,0,0,0-1.174-1.393,1.328,1.328,0,0,1-1.267-1.263,1.178,1.178,0,0,0-1.308-1.1c-.328,0-.657.015-.985.03A118.943,118.943,0,0,0,126.5,79.728a138.771,138.771,0,0,1-28.063,4.024c-.9.022-1.3.406-1.431,1.332a1.277,1.277,0,0,1-1.1,1.175c-1.117.242-1.328.5-1.329,1.636q0,5.534,0,11.067" transform="translate(-68.924 -55.142)" fill="#2aa8e6"/>
    <path id="パス_130" data-name="パス 130" d="M174.532,118.418V106.238a8.594,8.594,0,0,1-1.151-.784c-.343-.322-.574-.763-.9-1.1a.9.9,0,0,0-.619-.249,107.416,107.416,0,0,0-20.1,2.7,149.25,149.25,0,0,1-27.824,4.2c-.249.012-.517.27-.722.468-.553.535-1.09,1.09-1.608,1.658-.192.21-.447.482-.447.726q-.036,10.009,0,20.017a1.209,1.209,0,0,0,.407.681,11.914,11.914,0,0,1,1.442,1.4.99.99,0,0,0,1.029.5,128.336,128.336,0,0,0,23.049-3.418,116.9,116.9,0,0,1,16.26-2.8c2.766-.267,5.539-.447,8.312-.651a1.042,1.042,0,0,0,.877-.542,7.158,7.158,0,0,1,1.547-1.6.9.9,0,0,0,.459-.828c-.014-2.729-.008-5.46-.008-8.189m-46.119,9.111a3.635,3.635,0,1,1,3.646-3.583,3.642,3.642,0,0,1-3.646,3.583m24.941-5.049a1.038,1.038,0,0,1,1.167,1.167c0,.821-.453,1.123-1.167,1.123h-4.085v2.962c0,1.209-.626,1.643-1.794,1.643-1.254,0-1.751-.562-1.751-1.643V124.77h-4.085c-.822,0-1.167-.389-1.167-1.146a1.038,1.038,0,0,1,1.167-1.144h4.085v-.973l-.281-.433h-3.8a1.145,1.145,0,1,1,0-2.29h2.4l-2.745-4.475c-.454-.755-.6-.994-.6-1.469a1.854,1.854,0,0,1,1.945-1.533c.757,0,1.015.453,1.448,1.167l3.415,5.791,3.415-5.791c.433-.736.691-1.167,1.469-1.167a1.84,1.84,0,0,1,1.924,1.577c0,.431-.173.713-.6,1.425l-2.745,4.475h2.4c.67,0,1.167.237,1.167,1.144a1.024,1.024,0,0,1-1.167,1.146h-3.8l-.281.433v.973Zm13.894-2.231a3.635,3.635,0,1,1,3.641-3.589,3.641,3.641,0,0,1-3.641,3.589" transform="translate(-93.064 -79.975)" fill="#2aa8e6"/>
    <path id="パス_131" data-name="パス 131" d="M317.282,154.126a1.207,1.207,0,0,1-2.414-.038,1.207,1.207,0,1,1,2.414.038" transform="translate(-241.888 -117.463)" fill="#2aa8e6"/>
    <path id="パス_132" data-name="パス 132" d="M149.749,185.565a1.208,1.208,0,0,1-2.414-.1,1.208,1.208,0,1,1,2.414.1" transform="translate(-113.185 -141.593)" fill="#2aa8e6"/>
  </g>
</svg>
