<?xml version="1.0" encoding="utf-8"?>
<!-- Generator: Adobe Illustrator 24.2.1, SVG Export Plug-In . SVG Version: 6.00 Build 0)  -->
<svg version="1.1" id="レイヤー_1" xmlns="http://www.w3.org/2000/svg" xmlns:xlink="http://www.w3.org/1999/xlink" x="0px"
	 y="0px" viewBox="0 0 474.44 133.06" style="enable-background:new 0 0 474.44 133.06;" xml:space="preserve">
<style type="text/css">
	.st0{fill-rule:evenodd;clip-rule:evenodd;fill:#fff;}
	.st1{fill:#fff;}
</style>
<g>
	<path class="st0" d="M470.1,1.36c0.35,0.22,0.72,0.43,0.97,0.76c0.17,0.23,0.33,0.47,0.49,0.7s0.3,0.46,0.42,0.7
		c0.08,0.16,0.16,0.32,0.21,0.49c0.05,0.14,0.09,0.28,0.14,0.41c0.04,0.13,0.08,0.24,0.13,0.36c0.05,0.09,0.1,0.18,0.14,0.28
		c0.08,0.15,0.11,0.32,0.14,0.48c0.05,0.23,0.09,0.46,0.14,0.69c0.09,0.45,0.03,0.89,0,1.33c-0.06,0.87-0.4,1.66-0.77,2.44
		c-0.33,0.72-0.67,1.43-1.25,2.01c-0.27,0.27-0.54,0.55-0.91,0.7c-0.23,0.09-0.46,0.19-0.69,0.28c-0.16,0.06-0.33,0.14-0.49,0.21
		c-0.12,0.06-0.23,0.13-0.35,0.21c-0.28,0.18-0.59,0.22-0.9,0.28c-0.56,0.11-1.11,0.08-1.67,0c-0.45-0.06-0.91-0.1-1.32-0.35
		c-0.16-0.09-0.32-0.19-0.49-0.28c-0.12-0.06-0.23-0.13-0.34-0.21c-0.14-0.09-0.28-0.19-0.42-0.28c-0.15-0.1-0.29-0.22-0.41-0.35
		c-0.15-0.15-0.29-0.31-0.42-0.48c-0.13-0.17-0.24-0.32-0.35-0.49c-0.08-0.12-0.14-0.22-0.21-0.35c-0.06-0.14-0.1-0.28-0.14-0.42
		c-0.05-0.18-0.09-0.37-0.14-0.55c-0.04-0.14-0.07-0.28-0.14-0.42c-0.05-0.09-0.09-0.19-0.14-0.28c-0.04-0.09-0.06-0.18-0.06-0.28
		c0-0.26,0-0.52,0-0.78c0-0.36,0-0.73,0-1.1c0-0.37,0.08-0.71,0.2-1.04c0.16-0.43,0.35-0.84,0.55-1.25c0.16-0.32,0.3-0.65,0.56-0.91
		c0.11-0.1,0.21-0.21,0.35-0.28c0.12-0.06,0.24-0.14,0.34-0.21c0.14-0.09,0.28-0.19,0.42-0.28c0.14-0.1,0.28-0.19,0.41-0.28
		c0.16-0.11,0.32-0.19,0.49-0.28c0.16-0.08,0.33-0.15,0.5-0.2c0.12-0.05,0.23-0.09,0.35-0.14c0.12-0.06,0.23-0.14,0.34-0.21
		c0.26-0.17,0.48-0.4,0.7-0.62c0.47-0.47,1.07-0.48,1.67-0.48C468.84,0.87,469.5,0.98,470.1,1.36z M174.64,1.01
		c0.48,0.2,0.95,0.39,1.32,0.76c0.15,0.15,0.31,0.28,0.41,0.49c0.05,0.09,0.1,0.18,0.14,0.28c0.09,0.19,0.19,0.38,0.28,0.56
		c0.14,0.28,0.28,0.55,0.42,0.83c0.15,0.31,0.27,0.64,0.35,0.97c0.09,0.37,0.19,0.74,0.28,1.11c0.07,0.33,0.17,0.65,0.28,0.97
		c0.09,0.28,0.14,0.55,0.14,0.84c0,0.36-0.06,0.7-0.14,1.04c-0.12,0.55-0.33,1.04-0.56,1.53c-0.2,0.45-0.4,0.9-0.76,1.26
		c-0.19,0.19-0.39,0.36-0.63,0.48c-0.18,0.1-0.37,0.19-0.56,0.28c-0.14,0.06-0.27,0.14-0.42,0.2c-0.09,0.04-0.19,0.09-0.28,0.14
		c-0.09,0.05-0.18,0.09-0.28,0.14c-0.09,0.05-0.19,0.09-0.28,0.14c-0.3,0.15-0.65,0.2-0.97,0.28c-0.55,0.14-1.11,0.23-1.67,0.28
		c-0.42,0.03-0.84,0.07-1.26-0.06c-0.5-0.17-0.94-0.44-1.39-0.71c-0.61-0.35-1.13-0.8-1.53-1.39c-0.25-0.37-0.53-0.72-0.62-1.18
		c-0.04-0.17-0.07-0.34-0.14-0.49c-0.05-0.09-0.1-0.19-0.14-0.28c-0.1-0.19-0.11-0.41-0.14-0.63c-0.05-0.32-0.1-0.64-0.14-0.97
		c-0.03-0.18,0.02-0.39-0.14-0.55c-0.06-0.05-0.07-0.13-0.07-0.21c0-0.07,0.01-0.14,0.07-0.2c0.3-0.31,0.47-0.7,0.7-1.05
		c0.42-0.65,0.85-1.3,1.32-1.94c0.26-0.37,0.4-0.82,0.83-1.04c0.1-0.04,0.19-0.09,0.28-0.14c0.09-0.05,0.19-0.09,0.28-0.15
		c0.11-0.05,0.22-0.1,0.35-0.13c0.33-0.12,0.56-0.37,0.83-0.56c0.53-0.41,1.13-0.67,1.74-0.91C173.24,0.75,173.94,0.71,174.64,1.01z
		 M252.21,3.38c0.36-0.49,0.9-0.37,1.39-0.42c0.78-0.1,1.57-0.14,2.37-0.14c0.44,0,0.89-0.14,1.32,0.07
		c0.1,0.05,0.19,0.09,0.28,0.14c0.09,0.05,0.19,0.09,0.28,0.14c0.15,0.07,0.28,0.18,0.42,0.28c0.21,0.16,0.42,0.32,0.62,0.49
		c0.25,0.19,0.45,0.43,0.62,0.69c0.16,0.24,0.31,0.49,0.42,0.77c0.07,0.16,0.13,0.33,0.21,0.48c0.05,0.09,0.1,0.19,0.14,0.28
		c0.05,0.11,0.1,0.24,0.14,0.36c0.06,0.16,0.13,0.33,0.21,0.48c0.32,0.64,0.26,1.35,0.35,2.02c0.16,1.41,0.27,2.83,0.35,4.25
		c0.06,1.11,0.13,2.23,0.13,3.33c0,0.42,0,0.84-0.07,1.26c-0.05,0.28-0.05,0.56,0,0.84c0.03,0.16,0,0.35,0.14,0.48
		c0.04,0.04,0.04,0.1,0,0.14c-0.08,0.07-0.11,0.18-0.14,0.28c-0.05,0.14-0.05,0.28,0,0.42c0.07,0.19,0.1,0.41,0.14,0.62
		c0.04,0.28,0.04,0.55,0,0.83c-0.04,0.19-0.05,0.38-0.14,0.55c-0.05,0.1-0.09,0.2-0.14,0.29c-0.15,0.3-0.07,0.61-0.07,0.91
		c0,0.68,0.03,1.39,0.07,2.08c0.04,0.62,0.08,1.25,0,1.87c-0.03,0.22,0.04,0.45-0.14,0.63c-0.05,0.05-0.05,0.09,0,0.14
		c0.23,0.24,0.16,0.55,0.21,0.84c0.09,0.51,0.13,1.02,0.13,1.53c0,0.58,0,1.16,0,1.74c0,0.65,0,1.3,0,1.95
		c0,0.58-0.02,1.16-0.07,1.74c-0.06,0.71-0.04,1.43,0,2.15c0.03,0.68,0.07,1.35,0.07,2.03c0,0.22,0,0.46,0,0.69
		c0,0.07,0.04,0.14,0.08,0.21c0.03,0.06,0.07,0.14,0,0.21c-0.34,0.33-0.12,0.73-0.14,1.11c-0.05,0.7-0.09,1.39-0.14,2.08
		c-0.03,0.47-0.04,0.93-0.14,1.39c-0.05,0.23-0.09,0.46-0.14,0.7c-0.07,0.38-0.11,0.74-0.14,1.11c-0.05,0.51-0.05,1.02,0,1.53
		c0.02,0.28-0.11,0.59,0.14,0.83c0.04,0.05,0.04,0.09,0,0.13c-0.1,0.1-0.11,0.24-0.14,0.36c-0.05,0.18-0.09,0.37-0.14,0.56
		c-0.05,0.19-0.12,0.37-0.21,0.56c-0.09,0.18-0.18,0.37-0.28,0.55c-0.08,0.16-0.15,0.32-0.21,0.48c-0.04,0.14-0.09,0.29-0.14,0.42
		c-0.05,0.14-0.09,0.28-0.14,0.42c-0.06,0.17-0.13,0.32-0.21,0.49c-0.1,0.22-0.22,0.42-0.34,0.63c-0.16,0.26-0.32,0.51-0.49,0.76
		c-0.27,0.4-0.48,0.84-0.7,1.26c-0.3,0.61-0.64,1.21-0.97,1.81c-0.28,0.48-0.55,0.96-0.91,1.39c-0.19,0.23-0.38,0.46-0.56,0.7
		c-0.14,0.19-0.28,0.37-0.42,0.55c-0.14,0.19-0.28,0.38-0.42,0.56c-0.13,0.18-0.27,0.34-0.41,0.49c-0.11,0.11-0.21,0.21-0.35,0.28
		c-0.15,0.08-0.28,0.18-0.42,0.28c-0.18,0.14-0.36,0.29-0.55,0.43c-0.16,0.12-0.32,0.23-0.49,0.34c-0.18,0.13-0.37,0.24-0.56,0.36
		c-0.26,0.15-0.52,0.31-0.76,0.48c-0.22,0.15-0.44,0.3-0.63,0.49c-0.12,0.13-0.24,0.26-0.34,0.42c-0.12,0.16-0.26,0.29-0.42,0.41
		c-0.15,0.12-0.3,0.22-0.49,0.29c-0.12,0.03-0.24,0.07-0.35,0.13c-0.12,0.06-0.24,0.14-0.35,0.2c-0.18,0.13-0.37,0.24-0.56,0.36
		c-0.2,0.12-0.41,0.24-0.62,0.34c-0.18,0.1-0.36,0.17-0.55,0.22c-0.19,0.04-0.38,0.09-0.56,0.14c-0.24,0.05-0.47,0.16-0.69,0.27
		c-0.28,0.14-0.55,0.28-0.83,0.42c-0.28,0.14-0.56,0.25-0.84,0.35c-0.28,0.1-0.56,0.19-0.84,0.28c-0.29,0.09-0.59,0.14-0.9,0.14
		c-0.33,0-0.65,0-0.97,0c-0.24,0-0.47-0.01-0.7,0.07c-0.14,0.05-0.28,0.1-0.42,0.14c-0.32,0.1-0.65,0.06-0.97,0.06
		c-0.77,0-1.53,0-2.3,0c-0.76,0-1.53,0-2.3,0c-0.35,0-0.7,0.02-1.04-0.06c-0.19-0.04-0.37-0.1-0.56-0.14
		c-0.16-0.04-0.32-0.09-0.48-0.14c-0.14-0.04-0.28-0.09-0.42-0.14c-0.18-0.06-0.33-0.13-0.49-0.21c-0.19-0.09-0.37-0.19-0.55-0.28
		c-0.36-0.17-0.74-0.25-1.12-0.35c-0.64-0.16-1.26-0.38-1.87-0.62c-0.49-0.2-0.98-0.37-1.4-0.7c-0.15-0.13-0.3-0.26-0.49-0.35
		c-0.09-0.05-0.18-0.09-0.28-0.13c-0.09-0.05-0.18-0.1-0.28-0.14c-0.09-0.05-0.18-0.09-0.27-0.14c-0.1-0.05-0.19-0.09-0.28-0.13
		c-0.11-0.06-0.24-0.11-0.35-0.14c-0.23-0.08-0.43-0.21-0.63-0.35c-0.26-0.18-0.52-0.37-0.77-0.55c-0.2-0.17-0.41-0.33-0.62-0.49
		c-0.17-0.13-0.34-0.27-0.49-0.42c-0.13-0.13-0.25-0.27-0.34-0.41c-0.14-0.21-0.36-0.36-0.56-0.49c-0.3-0.21-0.59-0.38-0.9-0.57
		c-0.48-0.27-0.87-0.65-1.25-1.04c-0.48-0.48-0.94-0.95-1.39-1.46c-0.27-0.29-0.54-0.58-0.77-0.91c-0.09-0.14-0.19-0.28-0.28-0.42
		c-0.08-0.1-0.15-0.22-0.21-0.35c-0.05-0.09-0.09-0.19-0.14-0.27c-0.04-0.09-0.09-0.19-0.14-0.28c-0.05-0.11-0.09-0.23-0.14-0.35
		c-0.05-0.16-0.12-0.33-0.2-0.48c-0.09-0.17-0.18-0.34-0.28-0.49c-0.1-0.17-0.23-0.33-0.35-0.49c-0.14-0.19-0.28-0.37-0.42-0.55
		c-0.1-0.14-0.2-0.27-0.27-0.42c-0.1-0.2-0.15-0.41-0.21-0.62c-0.09-0.33-0.18-0.65-0.28-0.97c-0.06-0.22-0.11-0.44-0.21-0.63
		c-0.04-0.09-0.09-0.18-0.14-0.28c-0.07-0.14-0.11-0.28-0.14-0.42c-0.05-0.18-0.1-0.38-0.14-0.55c-0.04-0.17-0.09-0.33-0.14-0.48
		c-0.05-0.14-0.09-0.28-0.14-0.43c-0.12-0.35-0.07-0.73-0.07-1.1c0-0.61,0-1.2,0-1.81c0-0.51-0.01-1.03-0.07-1.54
		c-0.04-0.41-0.09-0.83-0.14-1.25c-0.03-0.23,0.06-0.5-0.14-0.7c-0.05-0.05-0.05-0.09,0-0.13c0.14-0.14,0.11-0.32,0.14-0.49
		c0.04-0.28,0.09-0.56,0.14-0.84c0.03-0.16,0.07-0.32,0.07-0.48c0-0.21-0.04-0.42-0.07-0.62c-0.04-0.35-0.05-0.7,0-1.04
		c0.04-0.24,0.06-0.47,0.14-0.7c0.05-0.14,0.09-0.28,0.14-0.43c0.05-0.11,0.09-0.23,0.14-0.34c0.04-0.1,0.09-0.19,0.14-0.28
		c0.1-0.19,0.15-0.42,0.21-0.63c0.09-0.32,0.19-0.64,0.28-0.97c0.09-0.31,0.2-0.61,0.35-0.9c0.14-0.28,0.28-0.56,0.42-0.84
		c0.12-0.23,0.23-0.46,0.35-0.69c0.1-0.22,0.22-0.42,0.35-0.62c0.11-0.19,0.22-0.38,0.35-0.56c0.07-0.11,0.14-0.23,0.2-0.35
		c0.06-0.13,0.11-0.29,0.14-0.42c0.1-0.42,0.39-0.72,0.63-1.04c0.35-0.48,0.72-0.95,1.11-1.4c0.33-0.37,0.66-0.73,0.98-1.1
		c0.29-0.34,0.59-0.66,0.9-0.97c0.22-0.23,0.44-0.46,0.7-0.62c0.14-0.1,0.28-0.19,0.42-0.28c0.14-0.09,0.28-0.18,0.41-0.28
		c0.17-0.1,0.33-0.23,0.5-0.35c0.23-0.17,0.45-0.33,0.69-0.49c0.38-0.26,0.75-0.53,1.11-0.83c0.43-0.35,0.84-0.69,1.26-1.04
		c0.24-0.21,0.49-0.45,0.77-0.62c0.15-0.11,0.31-0.2,0.48-0.28c0.16-0.07,0.32-0.14,0.49-0.21c0.14-0.04,0.28-0.09,0.42-0.13
		c0.14-0.05,0.28-0.1,0.41-0.14c0.21-0.07,0.42-0.1,0.63-0.14c0.28-0.05,0.56-0.09,0.84-0.14c0.2-0.04,0.41-0.08,0.62-0.14
		c0.14-0.04,0.28-0.09,0.42-0.14c0.21-0.06,0.41-0.1,0.63-0.14c0.28-0.05,0.56-0.09,0.83-0.14c0.21-0.04,0.42-0.07,0.63-0.14
		c0.13-0.04,0.28-0.09,0.42-0.14c0.14-0.04,0.28-0.09,0.42-0.14c0.14-0.05,0.28-0.08,0.42-0.13c0.27-0.09,0.55-0.14,0.83-0.22
		c0.46-0.09,0.93-0.13,1.39-0.13c0.31,0,0.6,0,0.9,0c0.28,0,0.56,0,0.84,0c1.11,0,2.18-0.21,3.27-0.35
		c1.57-0.22,3.11-0.55,4.59-1.12c0.78-0.29,1.72-0.27,2.23-1.11c0.11-0.19,0.22-0.37,0.34-0.56c0.13-0.19,0.27-0.37,0.42-0.55
		c0.22-0.28,0.37-0.59,0.48-0.91c0.12-0.32,0.23-0.64,0.28-0.97c0.05-0.28,0.12-0.56,0.21-0.84c0.09-0.28,0.19-0.56,0.28-0.83
		c0.13-0.39,0.1-0.79,0.07-1.19c-0.05-0.51-0.09-1.02-0.14-1.53c-0.04-0.41-0.06-0.83,0-1.25c0.09-0.63,0.26-1.26,0.42-1.87
		c0.21-0.83,0.48-1.62,0.91-2.36c0.26-0.47,0.5-0.95,0.97-1.26C251.82,3.77,252.03,3.6,252.21,3.38z M386.27,63.41
		c-0.17-0.13-0.36-0.25-0.55-0.34c-0.25-0.13-0.47-0.27-0.69-0.42c-0.22-0.15-0.44-0.3-0.62-0.49c-0.11-0.09-0.21-0.2-0.28-0.35
		c-0.09-0.17-0.22-0.33-0.35-0.48c-0.19-0.23-0.37-0.47-0.55-0.7c-0.21-0.26-0.42-0.52-0.64-0.77c-0.23-0.28-0.46-0.55-0.69-0.83
		c-0.17-0.2-0.34-0.41-0.49-0.63c-0.14-0.22-0.28-0.46-0.42-0.7c-0.2-0.35-0.41-0.7-0.62-1.04c-0.21-0.33-0.42-0.66-0.63-0.98
		c-0.15-0.22-0.3-0.44-0.41-0.69c-0.09-0.19-0.16-0.37-0.21-0.57c-0.04-0.18-0.09-0.36-0.14-0.55c-0.03-0.16-0.08-0.32-0.14-0.48
		c-0.04-0.14-0.09-0.28-0.13-0.42c-0.08-0.23-0.14-0.47-0.21-0.7c-0.09-0.32-0.18-0.65-0.28-0.98c-0.07-0.25-0.15-0.5-0.21-0.76
		c-0.05-0.19-0.09-0.37-0.14-0.55c-0.12-0.46-0.07-0.93-0.07-1.39c0-0.75,0-1.49,0-2.23c0-0.47,0.08-0.95-0.14-1.39
		c-0.09-0.19-0.19-0.38-0.28-0.56c-0.14-0.29-0.14-0.59-0.14-0.9c0-0.71,0.04-1.43,0.07-2.16c0.04-0.81,0.08-1.62,0.14-2.43
		c0.03-0.33-0.15-0.68,0.14-0.97c0.28-0.28,0.02-0.56,0-0.84c-0.09-0.99-0.11-1.99-0.14-2.99c-0.04-1.25-0.05-2.51,0-3.76
		c0.03-0.58-0.04-1.17,0.14-1.74c0.18-0.54,0.02-1.07,0-1.6c-0.06-1.17-0.1-2.33-0.14-3.49c-0.03-0.99-0.06-1.99-0.14-2.99
		c-0.05-0.67-0.07-1.35-0.07-2.02c0-0.74,0-1.48,0-2.22c0-0.63,0.02-1.26,0.07-1.88c0.05-0.51,0.09-1.03,0.14-1.53
		c0.05-0.57,0.04-1.12,0-1.67c-0.04-0.61-0.04-1.21,0-1.81c0.04-0.44,0.07-0.88,0.14-1.32c0.05-0.28,0.09-0.56,0.14-0.83
		c0.04-0.19,0.06-0.38,0.14-0.55c0.05-0.11,0.09-0.19,0.14-0.29c0.08-0.16,0.14-0.32,0.21-0.49c0.09-0.23,0.19-0.46,0.28-0.69
		c0.14-0.33,0.38-0.58,0.63-0.84c0.35-0.35,0.72-0.67,1.12-0.97c0.6-0.46,1.3-0.48,2.01-0.48c1.02,0,2.01,0.13,2.99,0.35
		c0.72,0.15,1.48,0.21,2.03,0.84c0.17,0.19,0.36,0.38,0.48,0.62c0.04,0.09,0.09,0.18,0.14,0.28c0.05,0.09,0.09,0.18,0.14,0.28
		c0.06,0.12,0.09,0.23,0.14,0.35c0.05,0.14,0.09,0.28,0.14,0.42c0.03,0.11,0.08,0.23,0.14,0.35c0.06,0.11,0.13,0.23,0.2,0.35
		c0.39,0.58,0.28,1.24,0.35,1.87c0.14,1.09,0.25,2.18,0.35,3.27c0.06,0.62,0.06,1.26,0.21,1.88c0.04,0.18,0.09,0.37,0.14,0.55
		c0.06,0.26,0.14,0.51,0.21,0.77c0.17,0.59,0.48,1.12,0.77,1.67c0.36,0.68,0.77,1.32,1.32,1.88c0.31,0.31,0.62,0.63,0.97,0.9
		c0.39,0.29,0.87,0.36,1.33,0.48c0.64,0.18,1.28,0.32,1.95,0.42c0.33,0.05,0.69-0.07,0.97,0.21c0.05,0.05,0.09,0.05,0.13,0
		c0.14-0.14,0.32-0.11,0.49-0.14c0.28-0.05,0.56-0.1,0.84-0.14c0.57-0.09,1.16-0.07,1.74-0.07c0.88,0,1.76,0.05,2.64,0.14
		c0.6,0.06,1.21,0.13,1.81,0.21c0.32,0.05,0.64,0.09,0.97,0.14c0.26,0.04,0.52,0.08,0.76,0.14c0.19,0.05,0.37,0.09,0.56,0.13
		c0.23,0.06,0.46,0.11,0.69,0.14c0.31,0.05,0.61,0.12,0.9,0.2c0.24,0.07,0.49,0.14,0.7,0.28c0.1,0.07,0.22,0.14,0.34,0.21
		c0.13,0.06,0.28,0.09,0.42,0.14c0.19,0.05,0.38,0.09,0.56,0.14c0.19,0.05,0.37,0.11,0.56,0.2c0.18,0.1,0.37,0.19,0.55,0.28
		c0.14,0.06,0.28,0.14,0.42,0.2c0.09,0.05,0.18,0.1,0.28,0.14c0.12,0.06,0.24,0.14,0.35,0.2c0.17,0.12,0.33,0.24,0.49,0.35
		c0.2,0.16,0.4,0.29,0.62,0.42c0.4,0.24,0.75,0.54,1.11,0.84c0.47,0.38,0.94,0.78,1.39,1.18c0.25,0.22,0.46,0.47,0.77,0.62
		c0.09,0.05,0.19,0.1,0.28,0.14c0.09,0.05,0.19,0.09,0.28,0.14c0.11,0.05,0.23,0.1,0.35,0.14c0.14,0.05,0.28,0.09,0.42,0.13
		c0.16,0.06,0.29,0.17,0.42,0.28c0.16,0.15,0.29,0.32,0.42,0.48c0.11,0.17,0.24,0.32,0.35,0.49c0.11,0.17,0.23,0.33,0.35,0.49
		c0.12,0.16,0.23,0.32,0.35,0.49c0.1,0.15,0.2,0.32,0.28,0.48c0.12,0.24,0.26,0.47,0.42,0.69c0.15,0.24,0.32,0.47,0.49,0.7
		c0.09,0.14,0.2,0.27,0.27,0.42c0.08,0.16,0.14,0.32,0.2,0.49c0.14,0.35,0.35,0.66,0.57,0.96c0.24,0.38,0.5,0.76,0.76,1.12
		c0.16,0.22,0.33,0.44,0.43,0.7c0.03,0.12,0.08,0.24,0.13,0.36c0.05,0.09,0.09,0.18,0.14,0.28c0.07,0.15,0.1,0.32,0.13,0.48
		c0.05,0.24,0.09,0.47,0.14,0.7c0.04,0.21,0.1,0.43,0.21,0.63c0.09,0.18,0.18,0.37,0.28,0.56c0.22,0.43,0.22,0.92,0.28,1.39
		c0.09,0.74,0.14,1.48,0.14,2.22c0,0.4,0.31,0.81-0.06,1.19c-0.05,0.04-0.05,0.09,0,0.13c0.08,0.08,0.1,0.19,0.14,0.28
		c0.05,0.17,0.13,0.33,0.21,0.48c0.14,0.28,0.17,0.6,0.21,0.91c0.1,0.92-0.09,1.81-0.21,2.71c-0.16,1.21-0.34,2.42-0.56,3.62
		c-0.1,0.55-0.08,1.14-0.35,1.67c-0.05,0.12-0.14,0.23-0.21,0.35c-0.09,0.14-0.18,0.28-0.28,0.42c-0.07,0.1-0.14,0.22-0.21,0.34
		c-0.07,0.14-0.11,0.27-0.13,0.42c-0.05,0.18-0.1,0.37-0.15,0.56c-0.03,0.14-0.07,0.28-0.13,0.41c-0.06,0.13-0.13,0.24-0.21,0.36
		c-0.1,0.14-0.18,0.28-0.28,0.42c-0.12,0.19-0.27,0.38-0.41,0.55c-0.26,0.32-0.48,0.68-0.7,1.04c-0.26,0.43-0.52,0.87-0.76,1.32
		c-0.28,0.5-0.65,0.92-1.04,1.32c-0.43,0.43-0.87,0.85-1.32,1.25c-0.32,0.29-0.64,0.57-0.97,0.84c-0.23,0.19-0.46,0.38-0.69,0.56
		c-0.26,0.2-0.51,0.41-0.76,0.62c-0.41,0.35-0.87,0.62-1.33,0.9c-0.55,0.34-1.09,0.67-1.66,0.98c-0.41,0.21-0.81,0.43-1.19,0.68
		c-0.23,0.15-0.46,0.3-0.7,0.42c-0.16,0.08-0.32,0.15-0.49,0.21c-0.14,0.04-0.27,0.09-0.42,0.14c-0.14,0.04-0.28,0.1-0.42,0.14
		c-0.14,0.04-0.27,0.09-0.42,0.14c-0.18,0.05-0.37,0.1-0.55,0.14c-0.23,0.05-0.46,0.09-0.7,0.13c-0.17,0.04-0.34,0.06-0.49,0.14
		c-0.15,0.07-0.28,0.19-0.42,0.28c-0.26,0.19-0.54,0.3-0.83,0.42c-0.32,0.12-0.63,0.22-0.97,0.28c-0.23,0.05-0.47,0.08-0.7,0.14
		c-0.19,0.05-0.37,0.1-0.56,0.14c-0.32,0.07-0.65,0.1-0.98,0.14c-0.46,0.03-0.93,0.08-1.39,0.13c-0.34,0.04-0.69,0.07-1.04,0.07
		c-0.76,0-1.49-0.17-2.23-0.28c-1.14-0.17-2.28-0.35-3.41-0.56c-0.66-0.12-1.31-0.2-1.95-0.41c-0.33-0.11-0.66-0.26-0.98-0.41
		c-0.33-0.17-0.66-0.36-0.97-0.56c-0.28-0.19-0.56-0.37-0.84-0.55c-0.4-0.27-0.83-0.48-1.25-0.71c-0.53-0.26-1.07-0.55-1.6-0.83
		c-0.39-0.21-0.79-0.44-1.11-0.76C386.69,63.77,386.49,63.58,386.27,63.41z M2.38,48.17c0.3-0.22,0.61-0.43,0.98-0.55
		c0.25-0.08,0.5-0.16,0.77-0.21c0.36-0.08,0.73-0.07,1.11-0.07c0.59,0,1.16,0.09,1.74,0.21c0.43,0.09,0.86,0.15,1.25,0.36
		c0.14,0.06,0.28,0.12,0.35,0.27c0.07,0.15,0.18,0.29,0.28,0.43c0.14,0.18,0.28,0.36,0.41,0.55c0.12,0.16,0.24,0.32,0.36,0.49
		c0.15,0.22,0.28,0.46,0.41,0.69c0.19,0.32,0.38,0.65,0.56,0.97c0.16,0.29,0.32,0.56,0.49,0.84c0.14,0.23,0.28,0.46,0.42,0.69
		c0.16,0.28,0.32,0.56,0.49,0.84c0.21,0.36,0.44,0.71,0.69,1.04c0.34,0.46,0.75,0.85,1.18,1.25c0.46,0.42,0.92,0.84,1.39,1.25
		c0.25,0.22,0.47,0.48,0.76,0.63c0.2,0.09,0.42,0.14,0.63,0.2c0.36,0.1,0.71,0.22,1.05,0.35c0.3,0.12,0.61,0.25,0.89,0.42
		c0.21,0.12,0.41,0.24,0.63,0.35c0.19,0.1,0.37,0.19,0.56,0.28c0.19,0.09,0.37,0.19,0.56,0.28c0.2,0.11,0.41,0.17,0.63,0.21
		c0.23,0.05,0.46,0.09,0.7,0.14c0.28,0.05,0.55,0.09,0.83,0.13c0.33,0.05,0.65,0.09,0.97,0.14c0.3,0.04,0.61,0.1,0.91,0.14
		c0.28,0.04,0.56,0.09,0.83,0.14c0.46,0.07,0.93,0.11,1.39,0.14c1,0.07,2,0.07,3,0.07c1.02,0,2.04,0,3.06-0.07
		c0.42-0.03,0.84,0,1.25-0.14c0.17-0.05,0.33-0.13,0.49-0.21c0.17-0.08,0.33-0.17,0.49-0.28c0.14-0.09,0.28-0.19,0.42-0.28
		c0.15-0.1,0.32-0.19,0.49-0.28c0.16-0.08,0.32-0.15,0.49-0.2c0.12-0.04,0.23-0.09,0.35-0.14c0.12-0.06,0.23-0.13,0.35-0.2
		c0.14-0.1,0.28-0.19,0.42-0.29c0.11-0.07,0.23-0.14,0.35-0.2c0.09-0.05,0.19-0.09,0.28-0.14c0.09-0.04,0.19-0.09,0.28-0.14
		c0.11-0.06,0.23-0.09,0.35-0.14c0.14-0.05,0.28-0.09,0.42-0.14c0.23-0.07,0.39-0.25,0.56-0.41c0.25-0.25,0.47-0.51,0.7-0.78
		c0.14-0.17,0.31-0.34,0.41-0.54c0.06-0.13,0.14-0.24,0.21-0.35c0.1-0.17,0.23-0.33,0.35-0.49c0.31-0.42,0.37-0.92,0.49-1.39
		c0.18-0.71,0.3-1.43,0.34-2.16c0.03-0.41,0.14-0.83,0-1.25c-0.04-0.14-0.09-0.28-0.13-0.42c-0.04-0.12-0.09-0.24-0.14-0.35
		c-0.05-0.1-0.1-0.19-0.14-0.28c-0.05-0.09-0.09-0.19-0.14-0.29c-0.07-0.11-0.14-0.23-0.21-0.34c-0.1-0.16-0.19-0.32-0.28-0.49
		c-0.13-0.28-0.31-0.52-0.48-0.77c-0.22-0.31-0.45-0.62-0.69-0.9c-0.19-0.23-0.38-0.46-0.56-0.7c-0.13-0.18-0.27-0.34-0.42-0.49
		c-0.18-0.18-0.4-0.28-0.63-0.35c-0.31-0.1-0.61-0.22-0.9-0.35c-0.29-0.13-0.56-0.26-0.83-0.42c-0.24-0.13-0.47-0.28-0.69-0.41
		c-0.2-0.13-0.42-0.25-0.62-0.36c-0.16-0.07-0.33-0.14-0.49-0.21c-0.16-0.05-0.33-0.09-0.49-0.13c-0.18-0.05-0.37-0.1-0.55-0.14
		c-0.15-0.04-0.29-0.08-0.42-0.14c-0.09-0.04-0.19-0.09-0.28-0.14c-0.24-0.12-0.51-0.14-0.77-0.2c-0.42-0.09-0.83-0.19-1.25-0.28
		c-0.31-0.07-0.61-0.14-0.9-0.28c-0.19-0.09-0.37-0.19-0.56-0.28c-0.27-0.12-0.55-0.13-0.84-0.13c-0.36,0-0.74,0-1.11,0
		c-0.23,0-0.47,0-0.69,0c-0.1,0-0.19,0-0.29,0c-0.11,0-0.23-0.04-0.34-0.07c-0.14-0.05-0.28-0.09-0.42-0.14
		c-0.12-0.04-0.24-0.09-0.34-0.14c-0.1-0.05-0.19-0.09-0.28-0.14c-0.13-0.06-0.27-0.09-0.41-0.13c-0.19-0.05-0.37-0.1-0.56-0.14
		c-0.27-0.07-0.55-0.12-0.83-0.15c-0.37-0.04-0.74-0.09-1.11-0.14c-0.31-0.04-0.61-0.1-0.91-0.21c-0.23-0.09-0.46-0.18-0.69-0.28
		c-0.17-0.06-0.33-0.13-0.49-0.21c-0.09-0.05-0.19-0.09-0.28-0.13c-0.19-0.1-0.41-0.12-0.62-0.14c-0.32-0.04-0.65-0.1-0.97-0.14
		c-0.32-0.04-0.65-0.09-0.97-0.13c-0.32-0.05-0.65-0.1-0.97-0.15c-0.28-0.03-0.55-0.09-0.84-0.13c-0.23-0.05-0.47-0.1-0.69-0.14
		c-0.21-0.05-0.43-0.09-0.63-0.14c-0.19-0.05-0.37-0.09-0.55-0.14c-0.19-0.04-0.38-0.11-0.56-0.2c-0.18-0.09-0.37-0.18-0.56-0.28
		c-0.14-0.07-0.28-0.14-0.42-0.21c-0.12-0.06-0.24-0.13-0.35-0.21c-0.19-0.13-0.37-0.23-0.55-0.35c-0.21-0.13-0.41-0.24-0.63-0.35
		c-0.19-0.09-0.37-0.19-0.56-0.28c-0.19-0.09-0.36-0.19-0.55-0.28c-0.16-0.08-0.32-0.15-0.49-0.22c-0.17-0.05-0.33-0.12-0.48-0.2
		c-0.17-0.09-0.33-0.18-0.49-0.28c-0.22-0.15-0.42-0.32-0.63-0.49c-0.29-0.24-0.57-0.5-0.83-0.76c-0.2-0.21-0.4-0.4-0.55-0.63
		c-0.11-0.16-0.23-0.32-0.35-0.49c-0.18-0.24-0.34-0.5-0.48-0.76c-0.2-0.36-0.41-0.7-0.63-1.04c-0.25-0.4-0.5-0.8-0.76-1.19
		c-0.24-0.37-0.48-0.73-0.69-1.11C2.95,29.23,2.81,29,2.66,28.76c-0.07-0.11-0.15-0.22-0.21-0.34c-0.15-0.31-0.15-0.65-0.21-0.98
		c-0.09-0.54-0.14-1.1-0.14-1.66c0-0.3-0.22-0.61,0.07-0.9c0.04-0.04,0.04-0.09,0-0.14c-0.09-0.1-0.11-0.22-0.14-0.35
		c-0.04-0.19-0.09-0.38-0.14-0.55c-0.04-0.16-0.07-0.32-0.07-0.49c0-0.28,0.03-0.56,0.07-0.83c0.04-0.35,0.08-0.71,0.14-1.05
		c0.05-0.25,0.09-0.51,0.14-0.76c0.04-0.24,0.09-0.47,0.14-0.69c0.04-0.22,0.09-0.42,0.14-0.63c0.05-0.19,0.09-0.37,0.14-0.56
		c0.04-0.16,0.08-0.33,0.14-0.48c0.05-0.14,0.09-0.29,0.14-0.42c0.06-0.16,0.1-0.32,0.14-0.49c0.05-0.22,0.12-0.42,0.21-0.62
		c0.09-0.23,0.2-0.44,0.35-0.62c0.12-0.16,0.24-0.33,0.35-0.49c0.14-0.21,0.24-0.46,0.35-0.7c0.14-0.32,0.27-0.65,0.42-0.97
		c0.09-0.22,0.17-0.45,0.34-0.62c0.11-0.11,0.22-0.2,0.35-0.28c0.22-0.15,0.43-0.32,0.63-0.49c0.27-0.23,0.55-0.46,0.83-0.69
		c0.21-0.17,0.41-0.34,0.63-0.49c0.14-0.09,0.28-0.19,0.42-0.28c0.22-0.14,0.42-0.31,0.63-0.49c0.32-0.26,0.64-0.52,0.98-0.76
		c0.32-0.24,0.64-0.48,0.97-0.7c0.28-0.19,0.55-0.38,0.83-0.56c0.22-0.15,0.45-0.29,0.7-0.42c0.2-0.09,0.4-0.16,0.62-0.2
		c0.23-0.05,0.47-0.09,0.7-0.15c0.27-0.05,0.52-0.15,0.77-0.27c0.28-0.14,0.56-0.28,0.83-0.42c0.21-0.1,0.41-0.21,0.62-0.28
		c0.14-0.05,0.28-0.09,0.42-0.14c0.32-0.11,0.65-0.15,0.98-0.22c0.5-0.09,1.02-0.18,1.53-0.28c0.35-0.06,0.71-0.11,1.04-0.28
		c0.18-0.09,0.36-0.19,0.55-0.28c0.16-0.08,0.32-0.16,0.49-0.21c0.14-0.04,0.28-0.09,0.42-0.14c0.27-0.09,0.55-0.07,0.83-0.07
		c0.42,0,0.84,0,1.25,0c0.26,0,0.52,0.05,0.76-0.07C23.9,5.21,24,5.16,24.09,5.12c0.7-0.35,1.4-0.03,2.09,0
		c1.67,0.05,3.34,0.16,5.01,0.28c1.4,0.1,2.79,0.17,4.18,0.35c0.47,0.05,0.95,0.05,1.39,0.28c0.19,0.09,0.37,0.19,0.56,0.28
		c0.29,0.14,0.59,0.24,0.9,0.36c0.42,0.14,0.84,0.28,1.25,0.41c0.31,0.1,0.61,0.2,0.91,0.35c0.18,0.09,0.36,0.19,0.55,0.28
		c0.16,0.08,0.32,0.15,0.48,0.2c0.14,0.05,0.28,0.1,0.43,0.15c0.12,0.04,0.23,0.09,0.34,0.13c0.09,0.05,0.19,0.11,0.28,0.14
		c0.1,0.05,0.18,0.1,0.29,0.14c0.27,0.13,0.47,0.35,0.7,0.55c0.37,0.33,0.74,0.65,1.11,0.98c0.27,0.23,0.55,0.47,0.83,0.69
		c0.19,0.14,0.38,0.28,0.56,0.43c0.14,0.1,0.27,0.2,0.42,0.27c0.14,0.07,0.25,0.18,0.34,0.29c0.15,0.15,0.29,0.31,0.43,0.49
		c0.13,0.17,0.24,0.35,0.34,0.55c0.1,0.18,0.19,0.37,0.28,0.56c0.07,0.14,0.14,0.28,0.21,0.42c0.05,0.09,0.09,0.19,0.14,0.28
		c0.05,0.1,0.09,0.19,0.14,0.28c0.05,0.09,0.09,0.19,0.14,0.28c0.05,0.09,0.09,0.19,0.14,0.29c0.05,0.09,0.09,0.19,0.14,0.28
		c0.06,0.12,0.13,0.24,0.21,0.35c0.09,0.14,0.19,0.28,0.28,0.42c0.07,0.11,0.15,0.22,0.21,0.35c0.07,0.12,0.11,0.28,0.14,0.41
		c0.05,0.19,0.09,0.38,0.14,0.56c0.04,0.15,0.07,0.29,0.14,0.42c0.07,0.14,0.18,0.28,0.27,0.42c0.15,0.19,0.29,0.4,0.41,0.62
		c0.11,0.18,0.21,0.36,0.28,0.55c0.09,0.25,0.11,0.51,0.14,0.77c0.05,0.38,0.05,0.74,0,1.11c-0.04,0.25-0.06,0.52-0.14,0.76
		c-0.09,0.3-0.3,0.52-0.49,0.78c-0.27,0.35-0.59,0.66-0.97,0.9c-0.23,0.14-0.45,0.29-0.69,0.41c-0.12,0.06-0.24,0.11-0.35,0.14
		c-0.17,0.05-0.33,0.14-0.49,0.21c-0.16,0.08-0.33,0.17-0.49,0.27c-0.12,0.08-0.23,0.15-0.35,0.21c-0.31,0.16-0.65,0.1-0.97,0.14
		c-0.73,0.06-1.45-0.09-2.15-0.28c-0.66-0.17-1.31-0.33-1.8-0.83c-0.24-0.23-0.48-0.47-0.63-0.77c-0.09-0.18-0.18-0.38-0.28-0.55
		c-0.06-0.14-0.14-0.28-0.2-0.43c-0.04-0.08-0.09-0.18-0.14-0.27c-0.06-0.12-0.13-0.24-0.2-0.35c-0.1-0.14-0.19-0.28-0.28-0.42
		c-0.15-0.23-0.31-0.43-0.48-0.64c-0.24-0.28-0.5-0.56-0.76-0.83c-0.2-0.19-0.39-0.4-0.62-0.55c-0.25-0.17-0.47-0.37-0.7-0.56
		c-0.34-0.29-0.69-0.56-1.04-0.83c-0.25-0.19-0.48-0.39-0.77-0.49c-0.12-0.04-0.24-0.08-0.35-0.14c-0.1-0.05-0.19-0.1-0.28-0.14
		c-0.1-0.05-0.19-0.09-0.29-0.14c-0.12-0.06-0.23-0.13-0.35-0.2c-0.14-0.1-0.28-0.19-0.42-0.28c-0.11-0.08-0.23-0.15-0.35-0.22
		c-0.22-0.11-0.46-0.15-0.69-0.2c-0.42-0.1-0.84-0.14-1.26-0.14c-0.28,0-0.56,0-0.83,0c-0.13,0-0.24-0.04-0.35-0.07
		c-0.14-0.05-0.28-0.09-0.42-0.14c-0.2-0.07-0.41-0.11-0.63-0.14c-0.28-0.05-0.56-0.09-0.83-0.14c-0.33-0.05-0.65-0.1-0.98-0.14
		c-0.37-0.05-0.75-0.09-1.11-0.14c-0.26-0.03-0.51-0.06-0.77-0.06c-0.44,0-0.88,0.04-1.32,0.06c-0.67,0.05-1.35,0.09-2.02,0.14
		c-0.4,0.04-0.8,0.05-1.19,0.14c-0.19,0.04-0.37,0.09-0.55,0.14c-0.23,0.05-0.46,0.1-0.7,0.14c-0.28,0.05-0.56,0.09-0.84,0.14
		c-0.21,0.03-0.42,0.07-0.62,0.14c-0.14,0.05-0.28,0.09-0.42,0.14c-0.21,0.07-0.41,0.13-0.62,0.2c-0.31,0.11-0.61,0.22-0.92,0.35
		c-0.24,0.09-0.47,0.2-0.69,0.35c-0.34,0.23-0.53,0.59-0.76,0.9c-0.4,0.54-0.71,1.13-0.98,1.74c-0.17,0.39-0.35,0.78-0.49,1.19
		c-0.04,0.12-0.08,0.23-0.14,0.35c-0.05,0.09-0.09,0.19-0.14,0.28c-0.08,0.16-0.11,0.32-0.14,0.49c-0.04,0.24-0.09,0.47-0.14,0.7
		c-0.03,0.14-0.07,0.27-0.07,0.41c0,0.19,0.04,0.38,0.07,0.56c0.06,0.4,0.13,0.8,0.21,1.18c0.07,0.34,0.13,0.69,0.35,0.98
		c0.1,0.14,0.2,0.27,0.28,0.42c0.09,0.18,0.23,0.32,0.35,0.48c0.21,0.26,0.41,0.52,0.62,0.76c0.18,0.22,0.36,0.43,0.56,0.63
		c0.13,0.13,0.27,0.24,0.42,0.34c0.29,0.2,0.64,0.26,0.97,0.35c0.49,0.14,0.97,0.25,1.46,0.35c0.31,0.06,0.61,0.12,0.9,0.21
		c0.14,0.04,0.28,0.1,0.41,0.14c0.17,0.05,0.33,0.1,0.49,0.14c0.18,0.04,0.37,0.09,0.56,0.14c0.22,0.05,0.46,0.1,0.7,0.14
		c0.27,0.04,0.55,0.09,0.83,0.14c0.25,0.04,0.48,0.1,0.7,0.21c0.19,0.09,0.38,0.18,0.56,0.28c0.21,0.11,0.45,0.14,0.69,0.14
		c0.28,0,0.56,0,0.83,0c0.21,0,0.43,0.01,0.63,0.07c0.14,0.05,0.28,0.09,0.42,0.14c0.34,0.11,0.69,0.19,1.04,0.28
		c0.56,0.14,1.12,0.28,1.67,0.43c0.33,0.07,0.67,0.13,0.97,0.27c0.09,0.05,0.18,0.09,0.28,0.14c0.3,0.15,0.65,0.2,0.97,0.28
		c0.56,0.14,1.12,0.28,1.67,0.41c0.33,0.08,0.67,0.13,0.98,0.28c0.09,0.05,0.18,0.1,0.29,0.14c0.31,0.15,0.64,0.1,0.97,0.14
		c0.55,0.04,1.11,0.09,1.67,0.14c0.35,0.03,0.71,0.03,1.05,0.13c0.14,0.05,0.27,0.1,0.41,0.14c0.12,0.05,0.24,0.09,0.35,0.15
		c0.09,0.04,0.19,0.09,0.28,0.14c0.18,0.09,0.37,0.14,0.56,0.2c0.28,0.09,0.56,0.19,0.84,0.28c0.19,0.06,0.38,0.12,0.56,0.2
		c0.09,0.05,0.18,0.1,0.27,0.14c0.14,0.06,0.28,0.1,0.42,0.14c0.21,0.05,0.43,0.13,0.63,0.2c0.19,0.08,0.39,0.16,0.56,0.28
		c0.14,0.09,0.28,0.19,0.42,0.28c0.14,0.09,0.27,0.18,0.41,0.28c0.14,0.09,0.28,0.18,0.42,0.28c0.19,0.14,0.42,0.24,0.63,0.35
		c0.3,0.15,0.6,0.31,0.9,0.48c0.29,0.17,0.57,0.35,0.84,0.57c0.19,0.14,0.37,0.28,0.55,0.42c0.12,0.07,0.23,0.14,0.35,0.21
		c0.27,0.13,0.47,0.36,0.7,0.56c0.39,0.34,0.79,0.69,1.18,1.04c0.44,0.38,0.78,0.86,1.04,1.39c0.26,0.52,0.5,1.04,0.7,1.6
		c0.11,0.3,0.2,0.62,0.35,0.9c0.04,0.09,0.09,0.19,0.14,0.28c0.05,0.09,0.09,0.19,0.13,0.28c0.07,0.12,0.14,0.24,0.21,0.36
		c0.1,0.13,0.19,0.28,0.28,0.41c0.09,0.14,0.18,0.29,0.28,0.42c0.1,0.16,0.19,0.32,0.28,0.49c0.08,0.16,0.15,0.31,0.2,0.48
		c0.12,0.34,0.12,0.7,0.14,1.04c0.05,0.56,0.05,1.11,0,1.68c-0.03,0.3,0.13,0.63-0.14,0.9c-0.04,0.05-0.04,0.09,0,0.13
		c0.44,0.44,0.16,0.97,0.22,1.47c0.09,0.93,0.13,1.85,0.13,2.79c0,0.6,0.04,1.2-0.07,1.8c-0.04,0.29-0.09,0.55-0.13,0.83
		c-0.03,0.19-0.05,0.39-0.14,0.57c-0.06,0.12-0.13,0.23-0.2,0.34c-0.09,0.14-0.19,0.28-0.28,0.42c-0.08,0.11-0.14,0.22-0.21,0.35
		c-0.08,0.18-0.14,0.38-0.2,0.56c-0.11,0.3-0.22,0.61-0.35,0.9c-0.1,0.24-0.2,0.47-0.34,0.7c-0.12,0.17-0.23,0.33-0.36,0.49
		c-0.14,0.18-0.28,0.36-0.41,0.55c-0.14,0.19-0.28,0.37-0.42,0.55c-0.17,0.23-0.33,0.47-0.49,0.7c-0.21,0.32-0.44,0.61-0.69,0.91
		c-0.34,0.39-0.72,0.76-1.11,1.12c-0.46,0.41-0.94,0.77-1.46,1.1c-0.4,0.26-0.81,0.51-1.26,0.7c-0.31,0.14-0.6,0.27-0.9,0.42
		c-0.25,0.12-0.5,0.24-0.76,0.35c-0.19,0.07-0.37,0.14-0.56,0.2c-0.14,0.05-0.28,0.1-0.42,0.14c-0.12,0.03-0.23,0.09-0.35,0.14
		c-0.09,0.04-0.18,0.09-0.28,0.14c-0.11,0.05-0.23,0.1-0.35,0.14c-0.14,0.05-0.28,0.09-0.42,0.14c-0.17,0.05-0.33,0.13-0.48,0.21
		c-0.19,0.09-0.38,0.19-0.56,0.28c-0.18,0.09-0.36,0.16-0.55,0.21c-0.19,0.05-0.37,0.09-0.56,0.14c-0.14,0.04-0.28,0.07-0.42,0.14
		c-0.09,0.05-0.18,0.09-0.28,0.13c-0.16,0.08-0.32,0.07-0.49,0.07c-0.23,0-0.46,0-0.69,0c-0.16,0-0.33-0.01-0.49,0.07
		c-0.09,0.05-0.19,0.09-0.28,0.14c-0.28,0.14-0.6,0.11-0.9,0.14c-0.52,0.04-1.02,0.09-1.53,0.14c-0.39,0.04-0.78,0.08-1.18,0.08
		c-0.27,0-0.56,0-0.83,0c-0.19,0-0.38-0.02-0.55,0.06c-0.1,0.05-0.19,0.1-0.29,0.14c-0.15,0.07-0.32,0.1-0.48,0.13
		c-0.24,0.05-0.46,0.1-0.69,0.14c-0.53,0.11-1.07,0.12-1.61,0.14c-1.13,0.07-2.26,0.07-3.4,0.07c-1.02,0-2.04,0.01-3.07-0.07
		c-0.37-0.02-0.75-0.02-1.11-0.14c-0.14-0.05-0.28-0.1-0.41-0.14c-0.27-0.09-0.56-0.14-0.83-0.2c-0.42-0.09-0.84-0.19-1.25-0.28
		c-0.26-0.06-0.52-0.09-0.77-0.21c-0.09-0.05-0.19-0.09-0.28-0.14c-0.11-0.05-0.23-0.11-0.35-0.14c-0.14-0.04-0.28-0.09-0.42-0.13
		c-0.22-0.08-0.46-0.11-0.7-0.14c-0.33-0.05-0.65-0.09-0.98-0.14c-0.21-0.03-0.42-0.04-0.62-0.14c-0.09-0.05-0.19-0.1-0.28-0.13
		c-0.16-0.09-0.32-0.15-0.49-0.22c-0.26-0.11-0.51-0.22-0.76-0.35c-0.31-0.16-0.61-0.32-0.91-0.49c-0.33-0.19-0.65-0.38-0.97-0.56
		c-0.28-0.16-0.56-0.32-0.83-0.49c-0.24-0.14-0.47-0.28-0.7-0.41c-0.19-0.11-0.38-0.23-0.56-0.36c-0.3-0.19-0.57-0.44-0.83-0.68
		c-0.49-0.44-0.97-0.89-1.46-1.33c-0.4-0.37-0.8-0.73-1.19-1.12c-0.17-0.17-0.35-0.35-0.49-0.55C4.14,62.02,4,61.7,3.85,61.39
		c-0.22-0.43-0.43-0.88-0.63-1.31c-0.14-0.31-0.27-0.61-0.42-0.91c-0.09-0.19-0.18-0.38-0.28-0.56c-0.1-0.19-0.19-0.41-0.28-0.62
		c-0.09-0.23-0.19-0.46-0.28-0.69c-0.1-0.26-0.19-0.52-0.28-0.76c-0.09-0.28-0.19-0.56-0.28-0.84c-0.06-0.19-0.13-0.37-0.21-0.56
		c-0.05-0.09-0.09-0.18-0.14-0.27c-0.05-0.1-0.09-0.19-0.14-0.28c-0.06-0.13-0.13-0.24-0.21-0.36c-0.31-0.47-0.14-0.97-0.14-1.46
		c0-0.95,0.26-1.85,0.63-2.71C1.5,49.37,1.75,48.65,2.38,48.17z M329.5,20.41c0.19,0.14,0.37,0.28,0.55,0.42
		c0.18,0.14,0.36,0.25,0.56,0.35c0.21,0.11,0.36,0.28,0.49,0.49c0.11,0.19,0.23,0.38,0.35,0.56c0.08,0.12,0.17,0.24,0.28,0.36
		c0.1,0.09,0.23,0.19,0.35,0.27c0.14,0.09,0.29,0.19,0.42,0.28c0.21,0.13,0.38,0.31,0.56,0.48c0.22,0.23,0.43,0.46,0.63,0.7
		c0.14,0.19,0.29,0.37,0.42,0.56c0.09,0.14,0.18,0.28,0.28,0.42c0.11,0.16,0.23,0.32,0.35,0.48c0.14,0.19,0.28,0.37,0.41,0.55
		c0.23,0.31,0.5,0.57,0.77,0.84c0.39,0.39,0.79,0.79,1.18,1.18c0.28,0.28,0.56,0.56,0.83,0.84c0.1,0.11,0.21,0.21,0.35,0.28
		c0.14,0.06,0.24,0.17,0.35,0.28c0.15,0.15,0.29,0.31,0.42,0.48c0.12,0.16,0.24,0.32,0.35,0.49c0.11,0.17,0.23,0.32,0.35,0.48
		c0.11,0.16,0.23,0.33,0.35,0.49c0.1,0.16,0.19,0.32,0.28,0.49c0.09,0.19,0.19,0.36,0.28,0.55c0.07,0.14,0.14,0.28,0.21,0.42
		c0.04,0.09,0.09,0.19,0.14,0.28c0.05,0.09,0.09,0.19,0.14,0.28c0.05,0.09,0.09,0.19,0.14,0.28c0.05,0.09,0.09,0.18,0.14,0.28
		c0.04,0.09,0.09,0.18,0.14,0.28c0.09,0.19,0.18,0.37,0.27,0.56c0.14,0.28,0.28,0.56,0.42,0.84c0.16,0.31,0.26,0.63,0.35,0.97
		c0.09,0.38,0.19,0.74,0.28,1.12c0.07,0.28,0.14,0.55,0.21,0.84c0.05,0.18,0.09,0.37,0.14,0.55c0.13,0.54,0.11,1.11,0.14,1.67
		c0.05,0.93,0.09,1.85,0.14,2.78c0.03,0.57,0,1.13,0.14,1.67c0.04,0.19,0.09,0.38,0.14,0.56c0.12,0.5-0.06,0.98-0.14,1.46
		c-0.14,0.8-0.33,1.59-0.56,2.36c-0.13,0.45-0.21,0.91-0.41,1.33c-0.05,0.09-0.1,0.18-0.15,0.28c-0.11,0.22-0.11,0.46-0.13,0.7
		c-0.05,0.38-0.09,0.74-0.14,1.12c-0.04,0.29-0.07,0.57-0.21,0.84c-0.11,0.21-0.22,0.42-0.35,0.62c-0.16,0.27-0.3,0.55-0.42,0.83
		c-0.18,0.41-0.39,0.8-0.63,1.18c-0.23,0.39-0.47,0.78-0.77,1.13c-0.25,0.3-0.5,0.6-0.77,0.9c-0.34,0.4-0.66,0.83-0.97,1.26
		c-0.3,0.41-0.61,0.83-0.91,1.25c-0.22,0.31-0.47,0.59-0.76,0.83c-0.25,0.22-0.51,0.43-0.76,0.63c-0.33,0.26-0.66,0.55-0.98,0.84
		c-0.47,0.41-0.95,0.79-1.46,1.18c-0.38,0.29-0.74,0.59-1.19,0.76c-0.16,0.07-0.33,0.13-0.49,0.21c-0.09,0.05-0.19,0.09-0.28,0.15
		c-0.09,0.04-0.19,0.09-0.28,0.13c-0.15,0.08-0.28,0.18-0.42,0.28c-0.24,0.17-0.5,0.29-0.77,0.41c-0.27,0.12-0.54,0.22-0.83,0.28
		c-0.19,0.04-0.37,0.07-0.55,0.14c-0.14,0.05-0.28,0.09-0.42,0.13c-0.12,0.05-0.23,0.09-0.35,0.14c-0.09,0.04-0.19,0.09-0.28,0.14
		c-0.11,0.05-0.23,0.1-0.35,0.14c-0.14,0.05-0.28,0.1-0.42,0.14c-0.12,0.03-0.24,0.09-0.35,0.14c-0.09,0.04-0.19,0.09-0.27,0.14
		c-0.29,0.14-0.6,0.11-0.91,0.14c-0.51,0.05-1.02,0.09-1.53,0.14c-0.84,0.08-1.67,0.07-2.51,0.07c-1.16,0-2.32-0.04-3.48-0.14
		c-0.72-0.06-1.44-0.09-2.15-0.21c-0.28-0.04-0.56-0.09-0.84-0.14c-0.21-0.04-0.43-0.07-0.62-0.14c-0.14-0.05-0.28-0.1-0.42-0.14
		c-0.11-0.04-0.23-0.07-0.35-0.07c-0.23,0-0.46,0-0.7,0c-0.33,0-0.66-0.03-0.98-0.13c-0.22-0.08-0.46-0.15-0.69-0.22
		c-0.18-0.05-0.37-0.09-0.56-0.13c-0.24-0.06-0.47-0.17-0.69-0.28c-0.28-0.14-0.55-0.29-0.84-0.42c-0.23-0.12-0.46-0.23-0.69-0.35
		c-0.21-0.11-0.42-0.22-0.63-0.35c-0.25-0.15-0.5-0.29-0.76-0.42c-0.31-0.15-0.61-0.31-0.91-0.48c-0.26-0.15-0.52-0.31-0.76-0.49
		c-0.24-0.18-0.47-0.37-0.7-0.55c-0.28-0.23-0.56-0.47-0.83-0.7c-0.19-0.15-0.35-0.32-0.56-0.42c-0.17-0.08-0.29-0.23-0.42-0.35
		c-0.25-0.25-0.44-0.55-0.63-0.84c-0.18-0.28-0.36-0.58-0.49-0.9c-0.09-0.22-0.2-0.44-0.35-0.62c-0.26-0.35-0.51-0.7-0.76-1.04
		c-0.32-0.44-0.65-0.87-1.04-1.26c-0.2-0.19-0.43-0.37-0.55-0.62c-0.09-0.18-0.22-0.33-0.35-0.48c-0.33-0.41-0.54-0.88-0.76-1.33
		c-0.28-0.57-0.55-1.14-0.77-1.74c-0.11-0.3-0.21-0.61-0.35-0.9c-0.05-0.1-0.09-0.19-0.14-0.28c-0.12-0.24-0.15-0.51-0.21-0.77
		c-0.09-0.42-0.19-0.84-0.28-1.26c-0.06-0.28-0.12-0.56-0.2-0.83c-0.05-0.14-0.1-0.28-0.14-0.42c-0.18-0.54-0.11-1.12-0.14-1.67
		c-0.05-0.97-0.05-1.95,0-2.93c0.03-0.62,0.04-1.25,0.14-1.87c0.05-0.29,0.1-0.56,0.14-0.84c0.03-0.21,0.07-0.42,0.13-0.62
		c0.05-0.14,0.09-0.28,0.14-0.42c0.1-0.31,0.11-0.64,0.14-0.97c0.04-0.51,0.09-1.03,0.14-1.53c0.04-0.41,0.09-0.81,0.28-1.18
		c0.14-0.28,0.28-0.55,0.42-0.84c0.12-0.23,0.24-0.46,0.35-0.7c0.11-0.21,0.23-0.42,0.35-0.62c0.11-0.19,0.23-0.38,0.34-0.56
		c0.11-0.16,0.23-0.33,0.35-0.48c0.15-0.2,0.29-0.41,0.42-0.63c0.1-0.17,0.21-0.35,0.28-0.55c0.06-0.19,0.13-0.37,0.2-0.55
		c0.12-0.32,0.3-0.61,0.49-0.91c0.19-0.3,0.39-0.61,0.62-0.9c0.15-0.18,0.29-0.37,0.42-0.56c0.09-0.14,0.19-0.28,0.28-0.42
		c0.14-0.23,0.32-0.43,0.49-0.63c0.24-0.29,0.5-0.57,0.76-0.84c0.2-0.19,0.39-0.4,0.62-0.55c0.14-0.1,0.28-0.19,0.43-0.28
		c0.12-0.09,0.24-0.18,0.35-0.28c0.36-0.36,0.74-0.7,1.11-1.04c0.66-0.61,1.28-1.27,1.88-1.94c0.38-0.44,0.77-0.85,1.11-1.32
		c0.14-0.19,0.28-0.38,0.42-0.56c0.14-0.19,0.28-0.37,0.42-0.56c0.13-0.17,0.27-0.34,0.42-0.49c0.11-0.11,0.22-0.2,0.36-0.28
		c0.3-0.15,0.52-0.41,0.77-0.62c0.42-0.38,0.83-0.75,1.25-1.12c0.29-0.26,0.59-0.52,0.9-0.76c0.17-0.13,0.33-0.26,0.49-0.42
		c0.11-0.1,0.21-0.2,0.28-0.34c0.06-0.13,0.13-0.24,0.21-0.35c0.14-0.21,0.31-0.38,0.48-0.56c0.22-0.22,0.45-0.44,0.69-0.62
		c0.16-0.13,0.31-0.26,0.49-0.35c0.27-0.14,0.48-0.37,0.7-0.56c0.43-0.38,0.88-0.75,1.32-1.11c0.36-0.29,0.73-0.57,0.97-0.97
		c0.17-0.3,0.46-0.44,0.77-0.56c0.51-0.19,0.99-0.04,1.46,0.13c0.5,0.2,0.98,0.42,1.39,0.78c0.2,0.17,0.38,0.37,0.62,0.48
		c0.13,0.07,0.25,0.18,0.35,0.28c0.15,0.14,0.29,0.31,0.42,0.48c0.19,0.27,0.41,0.52,0.62,0.77c0.27,0.3,0.54,0.61,0.84,0.9
		c0.19,0.19,0.36,0.4,0.63,0.49c0.26,0.08,0.48,0.26,0.69,0.42c0.31,0.21,0.62,0.45,0.91,0.69c0.3,0.26,0.61,0.51,0.9,0.77
		c0.31,0.27,0.62,0.54,0.9,0.84c0.18,0.18,0.38,0.33,0.49,0.55c0.05,0.11,0.13,0.2,0.21,0.28C329.21,20.2,329.35,20.31,329.5,20.41z
		 M93.38,29.88c0.2,0.25,0.33,0.53,0.42,0.84c0.09,0.32,0.19,0.64,0.28,0.97c0.06,0.21,0.11,0.43,0.21,0.62
		c0.05,0.1,0.09,0.19,0.13,0.29c0.06,0.11,0.1,0.23,0.14,0.35c0.04,0.14,0.09,0.27,0.14,0.41c0.07,0.2,0.07,0.42,0.07,0.63
		c0,0.28,0,0.55,0,0.83c0,0.65,0.04,1.29,0.07,1.94c0.05,1.03,0.1,2.04,0.14,3.07c0.03,0.7,0.05,1.39,0.13,2.08
		c0.05,0.38,0.05,0.75,0,1.12c-0.03,0.21,0.04,0.44-0.13,0.63c-0.05,0.05-0.05,0.09,0,0.14c0.15,0.16,0.1,0.37,0.13,0.56
		c0.05,0.32,0.09,0.65,0.14,0.97c0.03,0.23,0.06,0.47,0.13,0.7c0.05,0.13,0.1,0.28,0.14,0.42c0.09,0.25,0.07,0.5,0.07,0.76
		c0,0.38,0,0.75,0,1.11c0,0.31,0.03,0.62,0.14,0.91c0.1,0.26,0.22,0.51,0.35,0.76c0.21,0.42,0.49,0.8,0.77,1.18
		c0.53,0.74,1.16,1.38,1.81,2.01c0.68,0.68,1.38,1.33,2.22,1.81c0.37,0.21,0.74,0.43,1.11,0.62c0.09,0.05,0.19,0.1,0.28,0.14
		c0.09,0.05,0.19,0.09,0.28,0.14c0.16,0.07,0.32,0.1,0.48,0.13c0.24,0.05,0.47,0.1,0.7,0.14c0.19,0.05,0.38,0.08,0.57,0.14
		c0.13,0.05,0.28,0.1,0.42,0.14c0.42,0.14,0.87,0.12,1.32,0.14c0.74,0.04,1.48,0.04,2.23,0c0.47-0.03,0.93-0.03,1.39-0.14
		c0.19-0.05,0.38-0.09,0.56-0.14c0.23-0.05,0.46-0.09,0.69-0.14c0.28-0.04,0.56-0.09,0.84-0.14c0.29-0.05,0.57-0.14,0.83-0.28
		c0.28-0.14,0.56-0.28,0.84-0.42c0.18-0.09,0.37-0.19,0.55-0.28c0.16-0.07,0.29-0.18,0.43-0.28c0.19-0.15,0.38-0.31,0.55-0.49
		c0.15-0.15,0.3-0.3,0.42-0.48c0.1-0.17,0.22-0.33,0.34-0.49c0.14-0.19,0.28-0.38,0.42-0.56c0.19-0.23,0.37-0.47,0.56-0.7
		c0.23-0.28,0.47-0.56,0.7-0.83c0.19-0.23,0.38-0.45,0.56-0.7c0.17-0.23,0.32-0.46,0.49-0.69c0.15-0.23,0.3-0.46,0.42-0.7
		c0.17-0.33,0.18-0.69,0.21-1.04c0.04-0.51,0.09-1.03,0.14-1.53c0.04-0.42,0.09-0.85,0.21-1.25c0.09-0.32,0.14-0.64,0.14-0.97
		c0-0.28-0.01-0.56-0.07-0.84c-0.05-0.23-0.05-0.46,0-0.69c0.1-0.48,0.15-0.97,0.21-1.47c0.09-0.74,0.14-1.48,0.14-2.22
		c0-0.52,0.03-1.04-0.14-1.53c-0.09-0.27-0.14-0.56-0.14-0.84c0-0.35,0-0.69,0-1.03c0-0.43,0-0.84,0-1.26c0-0.3,0-0.61,0.07-0.91
		c0.04-0.18,0.09-0.37,0.14-0.54c0.03-0.13,0.04-0.26,0.14-0.36c0.07-0.06,0.03-0.13,0-0.21c-0.14-0.25-0.03-0.5,0-0.76
		c0.05-0.47,0.2-0.9,0.41-1.32c0.18-0.37,0.37-0.73,0.63-1.04c0.15-0.2,0.31-0.38,0.48-0.57c0.13-0.12,0.27-0.24,0.42-0.34
		c0.16-0.1,0.32-0.19,0.49-0.28c0.16-0.08,0.32-0.15,0.49-0.2c0.15-0.06,0.33-0.1,0.49-0.14c0.19-0.05,0.38-0.09,0.56-0.14
		c0.14-0.05,0.28-0.07,0.41-0.14c0.1-0.05,0.19-0.1,0.28-0.13c0.2-0.1,0.41-0.12,0.63-0.15c0.5-0.06,0.98,0.08,1.45,0.21
		c0.54,0.16,1.08,0.36,1.53,0.7c0.27,0.21,0.54,0.41,0.84,0.56c0.16,0.07,0.32,0.14,0.48,0.21c0.16,0.05,0.3,0.16,0.42,0.28
		c0.15,0.15,0.29,0.32,0.42,0.49c0.12,0.16,0.23,0.32,0.35,0.49c0.24,0.35,0.26,0.78,0.35,1.18c0.13,0.62,0.21,1.24,0.21,1.88
		c0,0.39,0.03,0.79-0.07,1.18c-0.05,0.19-0.05,0.38,0,0.56c0.09,0.34,0.11,0.69,0.14,1.04c0.05,0.51,0.05,1.02,0,1.52
		c-0.07,0.84-0.1,1.67-0.14,2.51c-0.05,1.16-0.09,2.32-0.13,3.48c-0.03,0.7,0,1.4-0.14,2.09c-0.05,0.23-0.05,0.46,0,0.7
		c0.09,0.43,0.08,0.88,0.08,1.32c0,0.66-0.05,1.31-0.14,1.95c-0.07,0.43-0.12,0.88-0.21,1.32c-0.04,0.23-0.09,0.47-0.14,0.7
		c-0.05,0.26-0.12,0.51-0.21,0.77c-0.09,0.28-0.19,0.55-0.28,0.83c-0.08,0.24-0.17,0.47-0.28,0.7c-0.09,0.19-0.18,0.38-0.28,0.55
		c-0.11,0.24-0.2,0.47-0.28,0.7c-0.1,0.31-0.22,0.61-0.35,0.91c-0.12,0.27-0.24,0.54-0.41,0.76c-0.13,0.17-0.24,0.32-0.35,0.5
		c-0.14,0.2-0.24,0.41-0.35,0.63c-0.18,0.35-0.4,0.69-0.63,1.04c-0.22,0.33-0.44,0.66-0.69,0.97c-0.19,0.23-0.37,0.47-0.56,0.7
		c-0.17,0.22-0.36,0.43-0.55,0.62c-0.17,0.17-0.35,0.31-0.56,0.42c-0.28,0.13-0.52,0.3-0.77,0.48c-0.28,0.21-0.56,0.41-0.83,0.63
		c-0.3,0.24-0.57,0.5-0.84,0.77c-0.38,0.37-0.77,0.71-1.19,1.04c-0.35,0.29-0.71,0.57-1.11,0.76c-0.21,0.11-0.43,0.22-0.63,0.35
		c-0.13,0.1-0.27,0.19-0.41,0.28c-0.14,0.1-0.28,0.19-0.42,0.29c-0.14,0.09-0.28,0.19-0.42,0.28c-0.14,0.09-0.28,0.19-0.42,0.28
		c-0.12,0.07-0.22,0.15-0.35,0.21c-0.17,0.08-0.37,0.14-0.55,0.2c-0.28,0.09-0.56,0.18-0.84,0.28c-0.19,0.06-0.38,0.11-0.55,0.2
		c-0.1,0.05-0.19,0.1-0.29,0.14c-0.2,0.09-0.41,0.15-0.62,0.2c-0.33,0.1-0.65,0.19-0.98,0.28c-0.25,0.07-0.51,0.14-0.76,0.2
		c-0.19,0.05-0.37,0.1-0.56,0.14c-0.29,0.07-0.6,0.1-0.9,0.14c-0.42,0.03-0.84,0.08-1.25,0.13c-0.28,0.03-0.56,0.05-0.83,0.14
		c-0.14,0.05-0.28,0.09-0.42,0.14c-0.11,0.04-0.23,0.06-0.35,0.06c-0.31,0-0.6-0.04-0.9-0.06c-0.47-0.05-0.93-0.09-1.4-0.14
		c-0.39-0.05-0.79-0.08-1.18-0.14c-0.38-0.05-0.75-0.1-1.12-0.13c-0.28-0.05-0.56-0.08-0.83-0.14c-0.18-0.04-0.37-0.1-0.55-0.14
		c-0.16-0.04-0.33-0.09-0.49-0.14c-0.14-0.04-0.28-0.09-0.42-0.14c-0.14-0.04-0.28-0.09-0.42-0.14c-0.14-0.04-0.28-0.09-0.41-0.14
		c-0.17-0.05-0.33-0.13-0.49-0.21c-0.19-0.09-0.37-0.19-0.55-0.28c-0.4-0.2-0.83-0.29-1.25-0.42c-0.74-0.2-1.45-0.48-2.16-0.76
		c-0.53-0.22-1.08-0.4-1.53-0.77c-0.16-0.12-0.31-0.25-0.49-0.34c-0.1-0.05-0.19-0.1-0.28-0.14c-0.15-0.07-0.28-0.18-0.41-0.28
		c-0.18-0.14-0.34-0.27-0.49-0.42c-0.13-0.13-0.25-0.27-0.35-0.42c-0.1-0.15-0.21-0.28-0.35-0.41c-0.22-0.22-0.46-0.43-0.69-0.63
		c-0.33-0.28-0.66-0.55-0.98-0.84c-0.23-0.19-0.45-0.38-0.7-0.56c-0.24-0.16-0.43-0.35-0.62-0.55c-0.31-0.31-0.58-0.63-0.84-0.97
		c-0.28-0.38-0.56-0.75-0.83-1.13c-0.25-0.32-0.5-0.64-0.76-0.96c-0.15-0.18-0.31-0.35-0.42-0.56c-0.06-0.11-0.1-0.24-0.14-0.36
		c-0.05-0.14-0.09-0.28-0.14-0.41c-0.04-0.14-0.09-0.29-0.14-0.43c-0.05-0.14-0.09-0.27-0.14-0.41c-0.07-0.22-0.18-0.42-0.28-0.63
		c-0.14-0.28-0.28-0.55-0.41-0.83c-0.12-0.25-0.23-0.5-0.28-0.77c-0.06-0.28-0.16-0.56-0.28-0.83c-0.12-0.27-0.24-0.54-0.42-0.77
		c-0.1-0.13-0.2-0.27-0.28-0.42c-0.15-0.31-0.2-0.64-0.28-0.97c-0.15-0.6-0.24-1.2-0.28-1.81c-0.03-0.38-0.07-0.74-0.07-1.11
		c0-0.24-0.04-0.47-0.07-0.7c-0.04-0.37-0.09-0.74-0.14-1.11c-0.03-0.27-0.06-0.52-0.14-0.76c-0.05-0.14-0.09-0.29-0.14-0.42
		c-0.07-0.23-0.07-0.47-0.07-0.7c0-0.34,0.05-0.66,0.14-0.98c0.12-0.4,0.14-0.83,0.14-1.25c0-0.51,0-1.02,0-1.52
		c0-0.36-0.02-0.71,0.07-1.04c0.05-0.19,0.09-0.38,0.14-0.56c0.1-0.39,0.04-0.79,0-1.18c-0.04-0.61-0.09-1.2-0.14-1.81
		c-0.04-0.49-0.06-0.97,0-1.46c0.05-0.38,0.09-0.74,0.14-1.11c0.04-0.27,0.06-0.52,0.14-0.77c0.04-0.14,0.09-0.28,0.14-0.42
		c0.04-0.14,0.09-0.28,0.14-0.42c0.04-0.14,0.09-0.28,0.14-0.42c0.04-0.11,0.08-0.24,0.13-0.35c0.05-0.09,0.1-0.19,0.14-0.28
		c0.05-0.09,0.09-0.19,0.14-0.28c0.15-0.3,0.41-0.52,0.62-0.76c0.6-0.67,1.42-0.89,2.23-1.12c0.91-0.27,1.82-0.47,2.78-0.41
		c0.42,0.02,0.85-0.06,1.25,0.14c0.1,0.05,0.19,0.09,0.28,0.14c0.14,0.07,0.28,0.18,0.41,0.27c0.28,0.21,0.52,0.45,0.77,0.7
		C92.89,29.32,93.14,29.59,93.38,29.88z M168.66,29.11c0.17-0.17,0.36-0.34,0.56-0.48c0.21-0.16,0.45-0.27,0.7-0.35
		c0.28-0.09,0.55-0.19,0.83-0.28c0.19-0.05,0.38-0.12,0.56-0.2c0.09-0.05,0.19-0.09,0.28-0.14c0.27-0.14,0.55-0.07,0.84-0.07
		c0.54,0,1.07,0.06,1.6,0.14c0.38,0.05,0.77,0.05,1.12,0.27c0.11,0.08,0.22,0.15,0.35,0.21c0.12,0.06,0.23,0.14,0.35,0.21
		c0.14,0.09,0.28,0.18,0.42,0.28c0.15,0.1,0.32,0.2,0.48,0.28c0.19,0.09,0.33,0.23,0.42,0.42c0.07,0.14,0.14,0.28,0.21,0.41
		c0.07,0.14,0.17,0.25,0.27,0.36c0.25,0.24,0.32,0.58,0.42,0.9c0.12,0.38,0.21,0.78,0.21,1.19c0,0.28-0.02,0.56-0.07,0.83
		c-0.05,0.23-0.05,0.46,0,0.7c0.07,0.37,0.11,0.74,0.14,1.11c0.05,0.51,0.09,1.02,0.14,1.52c0.03,0.31,0.07,0.6,0.07,0.91
		c0,0.16,0,0.32,0,0.49c0,0.21,0,0.41,0,0.62c0,0.14,0,0.28,0,0.41c0,0.07,0,0.14,0,0.21c0,0.58-0.09,1.16-0.14,1.74
		c-0.09,1.1-0.14,2.22-0.14,3.33c0,0.65-0.18,1.32,0.14,1.95c0.09,0.17,0.14,0.36,0.14,0.56c0,0.17-0.02,0.33-0.07,0.49
		c-0.05,0.14-0.09,0.28-0.14,0.41c-0.09,0.25-0.11,0.51-0.14,0.76c-0.05,0.38-0.05,0.75,0,1.12c0.05,0.42,0.1,0.84,0.14,1.25
		c0.05,0.47,0.05,0.94,0,1.4c-0.04,0.39-0.07,0.78-0.07,1.18c0,0.81,0,1.62,0,2.43c0,1.32,0,2.65,0,3.96c0,0.86,0,1.72,0,2.58
		c0,0.24,0.04,0.47-0.07,0.7c-0.05,0.1-0.09,0.19-0.14,0.28c-0.11,0.22-0.15,0.47-0.2,0.7c-0.13,0.49-0.33,0.95-0.56,1.4
		c-0.23,0.46-0.49,0.91-0.84,1.32c-0.2,0.24-0.4,0.47-0.62,0.69c-0.13,0.14-0.27,0.25-0.42,0.35c-0.17,0.12-0.36,0.21-0.55,0.28
		c-0.2,0.08-0.41,0.15-0.63,0.21c-0.17,0.05-0.33,0.09-0.49,0.14c-0.13,0.05-0.28,0.09-0.42,0.14c-0.12,0.05-0.24,0.09-0.35,0.14
		c-0.09,0.05-0.18,0.1-0.28,0.14c-0.26,0.13-0.55,0.06-0.83,0.06c-0.55,0-1.07-0.09-1.6-0.21c-0.4-0.09-0.81-0.1-1.11-0.42
		c-0.1-0.11-0.22-0.21-0.35-0.28c-0.09-0.05-0.19-0.1-0.28-0.14c-0.17-0.08-0.29-0.21-0.42-0.34c-0.19-0.2-0.38-0.41-0.56-0.63
		c-0.14-0.18-0.29-0.36-0.42-0.55c-0.29-0.45-0.27-0.97-0.35-1.47c-0.26-1.5-0.29-3-0.35-4.52c-0.08-1.78-0.14-3.56-0.14-5.35
		c0-0.86-0.05-1.72,0.07-2.58c0.05-0.32,0.05-0.65,0-0.98c-0.06-0.43-0.07-0.87-0.07-1.31c0-0.84,0-1.68,0-2.51
		c0-1.28-0.03-2.55-0.07-3.83c-0.04-1.37-0.04-2.74,0-4.11c0.04-1.06,0.07-2.13,0.07-3.19c0-0.62,0-1.26,0-1.89
		c0-0.28-0.02-0.56,0.07-0.83c0.05-0.14,0.09-0.29,0.14-0.43c0.04-0.11,0.08-0.23,0.14-0.33c0.04-0.1,0.09-0.19,0.14-0.28
		c0.08-0.18,0.11-0.37,0.14-0.56c0.05-0.32,0.1-0.65,0.14-0.97c0.04-0.33,0.15-0.62,0.42-0.84c0.22-0.17,0.43-0.36,0.62-0.56
		C168.28,29.49,168.47,29.3,168.66,29.11z M469.2,27.73c0.35,0.05,0.72,0.06,1.04,0.27c0.24,0.17,0.47,0.38,0.69,0.56
		c0.31,0.27,0.61,0.54,0.9,0.84c0.24,0.23,0.46,0.47,0.62,0.77c0.13,0.2,0.24,0.41,0.35,0.62c0.19,0.37,0.18,0.78,0.21,1.18
		c0.11,1.37,0.07,2.74,0.07,4.11c0,2.08,0.02,4.17,0.07,6.26c0.03,1.53,0.07,3.07,0.07,4.59c0,0.84,0,1.68,0,2.51
		c0,0.39,0,0.79,0,1.19c0,0.44,0,0.88,0,1.32c0,0.77,0.03,1.52,0.07,2.29c0.03,0.42,0.42,0.84,0,1.26
		c-0.14,0.14-0.11,0.32-0.14,0.48c-0.05,0.29-0.05,0.55,0,0.83c0.04,0.27,0.08,0.52,0.14,0.78c0.05,0.23,0.05,0.46,0,0.69
		c-0.1,0.48-0.11,0.97-0.14,1.46c-0.05,0.75-0.1,1.49-0.14,2.23c-0.04,0.61-0.1,1.22-0.27,1.81c-0.19,0.61-0.47,1.18-0.77,1.74
		c-0.27,0.52-0.55,1.04-0.97,1.46c-0.17,0.17-0.33,0.37-0.56,0.48c-0.12,0.06-0.24,0.13-0.35,0.2c-0.17,0.12-0.37,0.21-0.55,0.28
		c-0.2,0.08-0.41,0.15-0.63,0.21c-0.19,0.05-0.38,0.12-0.56,0.21c-0.19,0.09-0.37,0.18-0.55,0.28c-0.26,0.14-0.55,0.17-0.84,0.22
		c-0.46,0.05-0.93,0-1.39-0.08c-0.39-0.06-0.78-0.1-1.11-0.35c-0.14-0.1-0.27-0.2-0.42-0.28c-0.12-0.06-0.23-0.14-0.34-0.21
		c-0.14-0.09-0.28-0.19-0.42-0.28c-0.15-0.09-0.29-0.21-0.41-0.35c-0.18-0.17-0.34-0.36-0.49-0.55c-0.16-0.2-0.33-0.41-0.49-0.62
		c-0.09-0.14-0.2-0.27-0.28-0.42c-0.1-0.19-0.14-0.41-0.21-0.62c-0.09-0.32-0.13-0.64-0.13-0.98c0-0.28,0.01-0.54,0.06-0.83
		c0.05-0.23,0.05-0.47,0-0.7c-0.09-0.47-0.14-0.93-0.21-1.39c-0.12-0.87-0.14-1.75-0.14-2.64c0-0.72,0-1.45,0-2.16
		c0-0.52,0.03-1.02,0.07-1.52c0.07-0.95,0.1-1.91,0.14-2.85c0.04-0.93,0.08-1.85,0.08-2.78c0-0.48,0-0.94,0.06-1.39
		c0.05-0.33,0.05-0.65,0-0.98c-0.06-0.43-0.1-0.87-0.14-1.32c-0.05-0.62-0.04-1.25,0-1.87c0.03-0.42,0.08-0.84,0.08-1.26
		c0-0.35-0.05-0.7-0.08-1.04c-0.05-0.62-0.09-1.25-0.14-1.87c-0.03-0.42-0.07-0.84-0.07-1.26c0-0.26,0.04-0.51,0.07-0.76
		c0.05-0.38,0.09-0.75,0.14-1.11c0.05-0.38,0.08-0.74,0.08-1.12c0-0.38,0-0.74,0-1.11c0-0.35,0.03-0.71,0.13-1.04
		c0.09-0.32,0.19-0.65,0.28-0.97c0.08-0.28,0.17-0.56,0.28-0.83c0.16-0.38,0.39-0.71,0.63-1.05c0.27-0.39,0.56-0.77,0.9-1.12
		c0.18-0.18,0.33-0.37,0.56-0.48c0.1-0.05,0.19-0.1,0.28-0.14c0.09-0.05,0.19-0.09,0.27-0.14c0.1-0.04,0.19-0.09,0.28-0.14
		c0.18-0.09,0.37-0.19,0.56-0.28c0.52-0.26,1.1-0.25,1.67-0.28C467.8,27.61,468.5,27.61,469.2,27.73z M310.09,37.33
		c-0.1,0.19-0.19,0.37-0.28,0.55c-0.07,0.15-0.17,0.28-0.27,0.42c-0.19,0.24-0.33,0.5-0.49,0.76c-0.18,0.29-0.34,0.6-0.49,0.9
		c-0.12,0.24-0.24,0.47-0.35,0.7c-0.28,0.55-0.27,1.15-0.35,1.74c-0.13,0.91-0.25,1.81-0.35,2.71c-0.08,0.72-0.11,1.45,0,2.16
		c0.11,0.69,0.28,1.35,0.49,2.01c0.15,0.49,0.24,1.01,0.62,1.39c0.13,0.14,0.27,0.28,0.42,0.42c0.1,0.1,0.19,0.22,0.28,0.36
		c0.09,0.13,0.18,0.27,0.28,0.41c0.15,0.24,0.36,0.43,0.56,0.62c0.27,0.27,0.54,0.53,0.83,0.77c0.21,0.17,0.4,0.34,0.62,0.49
		c0.14,0.09,0.28,0.19,0.42,0.28c0.13,0.09,0.27,0.18,0.41,0.28c0.34,0.22,0.69,0.42,1.04,0.62c0.53,0.31,1.06,0.61,1.6,0.91
		c0.4,0.21,0.8,0.42,1.25,0.48c0.33,0.05,0.65,0.1,0.98,0.14c0.28,0.04,0.55,0.08,0.83,0.14c0.23,0.04,0.46,0.09,0.69,0.13
		c0.59,0.12,1.16-0.01,1.74-0.06c1.1-0.11,2.16-0.41,3.2-0.76c0.84-0.29,1.69-0.55,2.44-1.04c0.27-0.19,0.52-0.38,0.83-0.49
		c0.12-0.04,0.24-0.08,0.35-0.14c0.09-0.05,0.19-0.09,0.28-0.14c0.08-0.04,0.14-0.08,0.21-0.14c0.08-0.08,0.14-0.19,0.21-0.28
		c0.09-0.14,0.18-0.28,0.27-0.42c0.08-0.12,0.15-0.23,0.21-0.35c0.07-0.11,0.14-0.23,0.22-0.35c0.09-0.14,0.18-0.28,0.28-0.41
		c0.14-0.24,0.32-0.43,0.49-0.64c0.25-0.31,0.48-0.63,0.69-0.97c0.16-0.27,0.34-0.52,0.41-0.84c0.05-0.17,0.09-0.32,0.14-0.48
		c0.04-0.14,0.09-0.28,0.14-0.42c0.08-0.23,0.11-0.47,0.14-0.7c0.04-0.33,0.09-0.65,0.14-0.97c0.03-0.24,0.06-0.47,0.13-0.7
		c0.05-0.14,0.09-0.28,0.14-0.42c0.08-0.25,0.1-0.51,0.14-0.77c0.04-0.38,0.04-0.74,0-1.12c-0.05-0.39-0.09-0.78-0.14-1.19
		c-0.05-0.41-0.1-0.83-0.14-1.25c-0.05-0.38-0.1-0.75-0.21-1.11c-0.11-0.38-0.26-0.75-0.42-1.11c-0.16-0.37-0.34-0.72-0.55-1.04
		c-0.26-0.39-0.55-0.76-0.84-1.11c-0.41-0.52-0.85-1-1.32-1.47c-0.38-0.38-0.77-0.76-1.18-1.1c-0.28-0.24-0.56-0.48-0.83-0.71
		c-0.29-0.23-0.56-0.47-0.84-0.7c-0.2-0.17-0.4-0.34-0.62-0.48c-0.12-0.08-0.24-0.18-0.35-0.28c-0.08-0.09-0.15-0.18-0.2-0.29
		c-0.04-0.09-0.09-0.19-0.14-0.28c-0.05-0.09-0.09-0.18-0.13-0.28c-0.1-0.19-0.23-0.33-0.35-0.49c-0.2-0.24-0.4-0.47-0.63-0.69
		c-0.18-0.18-0.35-0.35-0.55-0.48c-0.2-0.13-0.38-0.28-0.55-0.42c-0.24-0.19-0.47-0.37-0.71-0.56c-0.18-0.14-0.36-0.28-0.55-0.41
		c-0.18-0.12-0.37-0.19-0.56-0.28c-0.38-0.15-0.71,0-1.04,0.14c-0.4,0.16-0.78,0.35-1.11,0.62c-0.22,0.18-0.43,0.36-0.63,0.56
		c-0.19,0.19-0.34,0.4-0.48,0.62c-0.15,0.23-0.3,0.45-0.42,0.7c-0.08,0.15-0.16,0.29-0.28,0.41c-0.11,0.11-0.22,0.19-0.35,0.28
		c-0.14,0.1-0.28,0.19-0.42,0.28c-0.14,0.09-0.28,0.19-0.41,0.28c-0.11,0.08-0.23,0.15-0.35,0.22c-0.17,0.08-0.29,0.22-0.42,0.35
		c-0.19,0.19-0.38,0.4-0.56,0.62c-0.25,0.3-0.51,0.61-0.77,0.9c-0.31,0.37-0.63,0.71-0.97,1.04c-0.2,0.2-0.37,0.43-0.62,0.56
		c-0.21,0.09-0.3,0.3-0.42,0.49C310.4,36.76,310.24,37.04,310.09,37.33z M229.25,35.45c-0.2,0.2-0.37,0.43-0.63,0.56
		c-0.23,0.1-0.38,0.31-0.56,0.49c-0.28,0.28-0.51,0.61-0.7,0.97c-0.14,0.28-0.29,0.57-0.49,0.83c-0.14,0.19-0.28,0.37-0.42,0.56
		c-0.09,0.13-0.19,0.26-0.28,0.41c-0.07,0.14-0.14,0.28-0.21,0.42c-0.09,0.19-0.18,0.38-0.28,0.56c-0.1,0.2-0.17,0.42-0.21,0.62
		c-0.04,0.24-0.09,0.47-0.14,0.7c-0.04,0.21-0.09,0.41-0.13,0.62c-0.05,0.19-0.1,0.37-0.14,0.56c-0.05,0.19-0.09,0.38-0.14,0.56
		c-0.04,0.18-0.09,0.37-0.14,0.55c-0.04,0.17-0.08,0.32-0.14,0.49c-0.05,0.13-0.09,0.28-0.13,0.41c-0.04,0.11-0.07,0.21-0.14,0.29
		c-0.04,0.04-0.04,0.09,0,0.13c0.1,0.1,0.11,0.23,0.14,0.35c0.04,0.19,0.09,0.38,0.13,0.56c0.09,0.37,0.15,0.74,0.21,1.11
		c0.09,0.56,0.18,1.11,0.27,1.68c0.06,0.32,0.06,0.66,0.21,0.97c0.15,0.3,0.41,0.52,0.63,0.76c0.37,0.42,0.74,0.84,1.11,1.25
		c0.22,0.25,0.48,0.47,0.63,0.77c0.07,0.14,0.17,0.24,0.28,0.35c0.15,0.15,0.31,0.29,0.49,0.42c0.16,0.11,0.32,0.23,0.49,0.34
		c0.14,0.09,0.28,0.19,0.42,0.28c0.19,0.12,0.38,0.27,0.55,0.41c0.23,0.19,0.47,0.38,0.7,0.57c0.16,0.13,0.34,0.27,0.49,0.42
		c0.85,0.86,1.89,0.28,2.85,0.35c1.97,0.15,3.94,0.1,5.91-0.07c1.26-0.11,2.59,0.24,3.69-0.69c0.2-0.17,0.38-0.37,0.62-0.48
		c0.1-0.05,0.19-0.1,0.28-0.14c0.1-0.04,0.19-0.09,0.29-0.14c0.09-0.05,0.18-0.09,0.27-0.14c0.14-0.08,0.21-0.21,0.28-0.35
		c0.09-0.19,0.2-0.34,0.35-0.49c0.11-0.11,0.21-0.21,0.28-0.35c0.06-0.11,0.14-0.23,0.21-0.35c0.09-0.14,0.18-0.28,0.28-0.41
		c0.12-0.2,0.27-0.38,0.42-0.56c0.24-0.3,0.44-0.64,0.62-0.97c0.19-0.34,0.37-0.68,0.49-1.04c0.06-0.19,0.12-0.38,0.21-0.57
		c0.04-0.09,0.09-0.19,0.13-0.28c0.1-0.19,0.12-0.41,0.14-0.62c0.04-0.33,0.09-0.65,0.14-0.97c0.04-0.24,0.07-0.47,0.14-0.7
		c0.05-0.14,0.1-0.28,0.14-0.42c0.05-0.16,0.1-0.32,0.14-0.49c0.04-0.19,0.09-0.37,0.14-0.55c0.07-0.29,0.07-0.6,0.07-0.9
		c0-0.42,0-0.84,0-1.26c0-0.3,0-0.61,0.07-0.91c0.05-0.18,0.09-0.37,0.14-0.55c0.05-0.18,0.07-0.37,0.07-0.55c0-0.19,0-0.38,0-0.56
		c0-0.47,0.08-0.93,0.14-1.38c0.09-0.74,0.14-1.48,0.14-2.23c0-0.42,0.13-0.85-0.07-1.25c-0.05-0.1-0.09-0.19-0.14-0.28
		c-0.09-0.17-0.11-0.37-0.14-0.56c-0.07-0.39-0.31-0.69-0.56-0.98c-0.54-0.61-1.29-0.62-2.01-0.68c-1.56-0.14-3.11-0.14-4.66-0.14
		c-1.74,0-3.48,0.02-5.22,0.07c-0.79,0.03-1.61-0.17-2.37,0.2c-0.19,0.1-0.38,0.19-0.56,0.29c-0.26,0.13-0.55,0.17-0.83,0.21
		c-0.4,0.04-0.79,0.12-1.18,0.2c-0.29,0.07-0.58,0.11-0.84,0.28c-0.28,0.18-0.55,0.37-0.83,0.55
		C229.96,34.81,229.59,35.11,229.25,35.45z M408.74,54.79c0.34-0.27,0.67-0.53,0.98-0.84c0.29-0.28,0.52-0.59,0.76-0.9
		c0.28-0.38,0.56-0.75,0.84-1.12c0.3-0.41,0.57-0.82,0.83-1.26c0.21-0.35,0.43-0.71,0.56-1.1c0.06-0.19,0.12-0.38,0.21-0.57
		c0.05-0.09,0.09-0.19,0.14-0.28c0.1-0.19,0.11-0.41,0.14-0.62c0.05-0.33,0.09-0.65,0.14-0.97c0.03-0.24,0.06-0.47,0.14-0.7
		c0.04-0.14,0.09-0.28,0.14-0.42c0.05-0.16,0.1-0.32,0.13-0.49c0.05-0.19,0.1-0.37,0.14-0.55c0.05-0.21,0.07-0.42,0.07-0.62
		c0-0.24-0.05-0.47-0.14-0.7c-0.17-0.43-0.21-0.87-0.28-1.33c-0.08-0.64-0.18-1.29-0.28-1.94c-0.05-0.38-0.03-0.76-0.21-1.11
		c-0.06-0.12-0.14-0.24-0.21-0.35c-0.11-0.16-0.23-0.33-0.34-0.48c-0.12-0.16-0.24-0.32-0.36-0.49c-0.11-0.16-0.22-0.33-0.34-0.48
		c-0.19-0.26-0.41-0.48-0.63-0.71c-0.22-0.21-0.45-0.43-0.7-0.62c-0.13-0.09-0.27-0.2-0.41-0.28c-0.12-0.06-0.24-0.13-0.35-0.2
		c-0.14-0.1-0.28-0.19-0.42-0.28c-0.16-0.11-0.32-0.2-0.49-0.28c-0.18-0.09-0.37-0.19-0.56-0.28c-0.14-0.06-0.28-0.13-0.42-0.2
		c-0.09-0.05-0.19-0.1-0.28-0.14c-0.09-0.04-0.19-0.09-0.28-0.14c-0.09-0.05-0.19-0.08-0.28-0.14c-0.09-0.04-0.19-0.09-0.28-0.14
		c-0.09-0.04-0.19-0.09-0.28-0.14c-0.12-0.06-0.23-0.13-0.34-0.2c-0.14-0.1-0.28-0.19-0.42-0.28c-0.11-0.07-0.22-0.15-0.34-0.22
		c-0.21-0.1-0.46-0.1-0.69-0.13c-0.37-0.05-0.75-0.09-1.11-0.14c-0.85-0.11-1.72-0.11-2.58-0.14c-1.34-0.05-2.69-0.09-4.03-0.14
		c-0.84-0.03-1.69,0.04-2.51-0.21c-0.32-0.08-0.64-0.14-0.98-0.14c-0.2,0-0.43-0.03-0.62,0.07c-0.1,0.04-0.19,0.09-0.28,0.14
		c-0.26,0.12-0.56,0.15-0.83,0.2c-0.6,0.13-1.04,0.49-1.46,0.91c-0.6,0.59-0.79,1.34-0.84,2.15c-0.05,1.21-0.07,2.42-0.07,3.62
		c0,1.29-0.01,2.6-0.07,3.9c-0.02,0.61-0.06,1.19-0.06,1.8c0,0.15,0.04,0.28,0.06,0.42c0.05,0.19,0.1,0.38,0.14,0.56
		c0.09,0.37,0.15,0.74,0.21,1.11c0.1,0.56,0.19,1.11,0.28,1.68c0.06,0.32,0.06,0.66,0.21,0.97c0.15,0.3,0.41,0.52,0.62,0.76
		c0.37,0.42,0.75,0.84,1.11,1.25c0.22,0.25,0.47,0.47,0.63,0.77c0.06,0.14,0.17,0.24,0.28,0.35c0.15,0.15,0.31,0.29,0.49,0.42
		c0.16,0.11,0.32,0.23,0.48,0.34c0.14,0.09,0.28,0.19,0.41,0.28c0.28,0.18,0.52,0.4,0.77,0.62c0.48,0.42,1.03,0.71,1.6,0.97
		c0.53,0.25,1.08,0.49,1.67,0.55c0.33,0.05,0.65,0.08,0.97,0.14c0.23,0.05,0.46,0.1,0.69,0.14c0.22,0.04,0.43,0.09,0.63,0.14
		c0.19,0.04,0.37,0.09,0.56,0.13c0.23,0.05,0.46,0.06,0.69,0.06c0.29,0,0.57-0.05,0.84-0.13c0.4-0.14,0.82-0.18,1.25-0.21
		c0.56-0.05,1.12-0.09,1.67-0.14c0.33-0.02,0.67,0.02,0.97-0.14c0.31-0.14,0.61-0.32,0.91-0.48
		C407.83,55.42,408.3,55.13,408.74,54.79z"/>
</g>
<g>
	<path class="st1" d="M113.6,127.85c-0.12,0.37-0.49,1.36-1.57,1.36c-1.03,0-2.62-0.68-2.62-1.8c0-0.08,0-0.54,0.17-1.01l5.65-15.39
		c0.66-1.79,1.69-2.81,3.77-2.81c1.54,0,2.95,0.41,3.83,2.81l5.66,15.39c0.07,0.18,0.17,0.56,0.17,0.93c0,1.4-1.89,1.88-2.67,1.88
		c-0.81,0-1.27-0.68-1.52-1.36l-1.2-3.26h-8.49L113.6,127.85z M116.15,120.96h5.82l-2.32-6.34c-0.23-0.59-0.42-0.66-0.59-0.66
		c-0.22,0-0.42,0.12-0.61,0.66L116.15,120.96z"/>
	<path class="st1" d="M159.8,127.3c0,1.15-0.49,1.91-1.96,1.91c-1.29,0-2.13-0.39-2.13-1.91v-7.44c0-0.76,0-2.96-2.08-2.96
		c-1.54,0-2.7,1.24-2.7,3.06v7.34c0,0.79-0.17,1.91-1.96,1.91c-1.29,0-2.1-0.39-2.1-1.91v-11.94c0-0.78,0.17-1.91,1.96-1.91
		c0.98,0,2.11,0.22,2.11,1.79c0.64-0.61,1.86-1.79,4.06-1.79c2.55,0,4.8,1.49,4.8,5.56V127.3z"/>
	<path class="st1" d="M170.83,122.51c0.12,2.18,1.47,3.33,3.14,3.33c1.68,0,2.11-0.79,2.39-1.33c0.4-0.78,0.66-1.32,1.94-1.32
		c0.69,0,2.08,0.24,2.08,1.64c0,0.93-1.59,4.38-6.47,4.38c-5.26,0-7.42-3.84-7.42-7.91c0-4.38,2.47-7.86,7.08-7.86
		c5.38,0,7.02,4.75,7.02,6.83c0,2.23-2.15,2.23-2.89,2.23H170.83z M175.38,119.57c0.39,0,0.78-0.1,0.78-0.58
		c0-0.66-0.85-2.18-2.55-2.18c-0.36,0-2.08,0-2.71,2.76H175.38z"/>
	<path class="st1" d="M191.73,123.42c0.03,0.09,0.12,0.33,0.24,0.33c0.18,0,0.25-0.29,0.28-0.39l1.49-8.1
		c0.19-1.03,0.81-1.81,2.16-1.81c1.71,0,2.23,0.81,2.42,1.81l1.49,8.1c0.03,0.13,0.1,0.39,0.25,0.39c0.15,0,0.19-0.17,0.24-0.33
		l2.03-8.55c0.35-1.42,1.59-1.42,1.89-1.42c1.05,0,2.16,0.71,2.16,1.79c0,0.02-0.03,0.44-0.1,0.73l-3.3,11.51
		c-0.46,1.66-2.16,1.74-2.6,1.74c-0.39,0-2.23,0-2.57-1.88l-1.61-8.67c-0.03-0.12-0.1-0.27-0.17-0.27c-0.1,0-0.14,0.22-0.14,0.27
		l-1.62,8.67c-0.32,1.76-1.98,1.88-2.67,1.88c-1.69,0-2.35-1.17-2.52-1.74l-3.28-11.51c-0.05-0.14-0.1-0.37-0.1-0.63
		c0-1.44,1.37-1.89,2.23-1.89c0.78,0,1.54,0.4,1.79,1.42L191.73,123.42z"/>
	<path class="st1" d="M228.5,127.3c0,0.79-0.17,1.91-1.96,1.91c-1.29,0-2.13-0.39-2.13-1.91v-17.2c0-0.78,0.2-1.91,1.96-1.91
		c1.3,0,2.13,0.39,2.13,1.91V127.3z"/>
	<path class="st1" d="M240.51,110.41c0,1.25-1,2.23-2.23,2.23c-1.25,0-2.23-0.98-2.23-2.23c0-1.2,0.95-2.23,2.23-2.23
		C239.54,108.19,240.51,109.21,240.51,110.41z M240.32,127.3c0,1.15-0.49,1.91-1.96,1.91c-1.3,0-2.13-0.39-2.13-1.91v-11.94
		c0-0.78,0.19-1.91,1.96-1.91c1.17,0,2.13,0.3,2.13,1.91V127.3z"/>
	<path class="st1" d="M249.64,112.79c0-4.31,3.87-4.6,4.99-4.6c0.88,0,2.03,0.24,2.03,1.56c0,0.23-0.02,1.35-1.1,1.55
		c-1.15,0.22-1.83,0.37-1.83,1.44v1.25h1.32c0.39,0,1.61,0,1.61,1.51c0,1.49-1.07,1.57-1.61,1.57h-1.32v10.23
		c0,0.79-0.2,1.91-1.96,1.91c-1.3,0-2.13-0.39-2.13-1.91v-10.23h-1.32c-0.39,0-1.64,0-1.64-1.52c0-1.52,1.15-1.56,1.64-1.56h1.32
		V112.79z"/>
	<path class="st1" d="M266.23,122.51c0.12,2.18,1.47,3.33,3.13,3.33c1.69,0,2.11-0.79,2.39-1.33c0.4-0.78,0.66-1.32,1.94-1.32
		c0.69,0,2.08,0.24,2.08,1.64c0,0.93-1.59,4.38-6.47,4.38c-5.26,0-7.42-3.84-7.42-7.91c0-4.38,2.47-7.86,7.08-7.86
		c5.38,0,7.02,4.75,7.02,6.83c0,2.23-2.16,2.23-2.89,2.23H266.23z M270.78,119.57c0.39,0,0.78-0.1,0.78-0.58
		c0-0.66-0.85-2.18-2.54-2.18c-0.37,0-2.08,0-2.72,2.76H270.78z"/>
	<path class="st1" d="M305.7,115.7c0.25,0.35,0.74,1.13,0.74,1.93c0,0.93-0.81,1.5-2.03,1.5c-1.27,0-1.69-0.47-1.86-0.95
		c-0.24-0.76-0.52-1.57-2.57-1.57c-1.15,0-2.23,0.37-2.23,1.23c0,0.82,0.93,1.05,2.5,1.44c3.53,0.86,4.45,1.08,5.51,2.06
		c0.83,0.78,1.15,1.71,1.15,2.82c0,3.89-3.52,5.06-6.75,5.06c-5.19,0-6.91-2.91-6.91-4.45c0-1,0.71-1.68,1.99-1.68
		c1.3,0,1.49,0.38,2.02,1.61c0.37,0.81,1.13,1.28,2.92,1.28c1.71,0,2.62-0.42,2.62-1.35c0-0.8-0.32-0.88-3.79-1.71
		c-3.03-0.71-5.29-1.64-5.29-4.6c0-2.86,2.35-4.85,6.29-4.85C301.98,113.45,304.3,113.77,305.7,115.7z"/>
	<path class="st1" d="M314.84,111.25c0-1.15,0.49-1.91,1.96-1.91c1.3,0,2.13,0.39,2.13,1.91v2.74h1.54c0.39,0,1.61,0,1.61,1.51
		c0,1.49-1.07,1.57-1.61,1.57h-1.54v7.52c0,1.34,0.78,1.34,1.59,1.37c0.39,0,1.64,0,1.64,1.44c0,1.66-1.78,1.8-2.84,1.8
		c-3.48,0-4.48-1.27-4.48-4.13v-8h-1.1c-0.39,0-1.64,0-1.64-1.52c0-1.52,1.15-1.56,1.64-1.56h1.1V111.25z"/>
	<path class="st1" d="M337.31,114.75c0.29-0.75,0.8-1.3,1.74-1.3c1.13,0,2.25,0.81,2.25,1.74c0,0.32-0.05,0.71-0.17,1l-5.53,12.7
		c-0.59,1.34-1.5,3.4-4.88,3.4c-0.61,0-2.16,0-2.16-1.82c0-1.56,1.23-1.58,1.62-1.61c1.39-0.05,1.76-0.48,1.98-1.08l0.34-0.88
		l-5.31-10.67c-0.02-0.07-0.22-0.51-0.22-0.9c0-1.01,1.11-1.89,2.33-1.89c0.54,0,1.2,0.2,1.66,1.23l3.41,7.41L337.31,114.75z"/>
	<path class="st1" d="M351.65,127.3c0,0.79-0.17,1.91-1.96,1.91c-1.3,0-2.13-0.39-2.13-1.91v-17.2c0-0.78,0.2-1.91,1.96-1.91
		c1.29,0,2.13,0.39,2.13,1.91V127.3z"/>
	<path class="st1" d="M362.55,122.51c0.12,2.18,1.47,3.33,3.14,3.33c1.68,0,2.1-0.79,2.39-1.33c0.39-0.78,0.66-1.32,1.94-1.32
		c0.69,0,2.08,0.24,2.08,1.64c0,0.93-1.59,4.38-6.46,4.38c-5.26,0-7.42-3.84-7.42-7.91c0-4.38,2.47-7.86,7.08-7.86
		c5.38,0,7.02,4.75,7.02,6.83c0,2.23-2.15,2.23-2.89,2.23H362.55z M367.11,119.57c0.39,0,0.78-0.1,0.78-0.58
		c0-0.66-0.85-2.18-2.55-2.18c-0.36,0-2.08,0-2.71,2.76H367.11z"/>
</g>
</svg>
