<svg id="グループ_49" data-name="グループ 49" xmlns="http://www.w3.org/2000/svg" xmlns:xlink="http://www.w3.org/1999/xlink" width="55" height="52.5" viewBox="0 0 55 52.5">
  <defs>
    <clipPath id="clip-path">
      <rect id="長方形_51" data-name="長方形 51" width="55" height="52.5" fill="#2aa8e6"/>
    </clipPath>
  </defs>
  <g id="グループ_48" data-name="グループ 48" clip-path="url(#clip-path)">
    <path id="パス_140" data-name="パス 140" d="M0,16.953a3.49,3.49,0,0,1,1.887-2.569A5.167,5.167,0,0,1,3.8,13.991c3.238-.038,6.477-.018,9.716-.018h.757c-.346-.273-.579-.464-.819-.647a7.391,7.391,0,0,1-3.135-6.1A7.125,7.125,0,0,1,14.86.5a6.985,6.985,0,0,1,8.13,2.231,21.4,21.4,0,0,1,4.2,8.579,15.555,15.555,0,0,1,.2,2.113.947.947,0,0,0,.13.53,1.109,1.109,0,0,0,.07-.306,10.809,10.809,0,0,1,.9-4.735,21.647,21.647,0,0,1,3.814-6.548,6.707,6.707,0,0,1,7.4-1.992A6.675,6.675,0,0,1,44.561,6.13a7.223,7.223,0,0,1-2.939,7.123,4.231,4.231,0,0,0-.777.72h.56c3.239,0,6.479.057,9.716-.019A3.632,3.632,0,0,1,55,17.89c-.062,1.529-.009,3.063-.013,4.6a1.788,1.788,0,0,1-2.015,1.994q-8.562.005-17.124,0H30.951V17.51H24.078V24.48h-.743c-7,0-13.993-.013-20.989.014A2.229,2.229,0,0,1,0,23.192Zm13.751-9.7A3.813,3.813,0,0,0,15.027,10.1a17.46,17.46,0,0,0,5.255,3.118,11.53,11.53,0,0,0,2.312.659c1.689.285,1.575-.26,1.289-1.541A17.58,17.58,0,0,0,20.2,4.774,3.6,3.6,0,0,0,16.11,3.717a3.845,3.845,0,0,0-2.359,3.534M37.483,3.494a3.333,3.333,0,0,0-2.715,1.319,30.6,30.6,0,0,0-2.252,3.569,12.534,12.534,0,0,0-1.5,4.577c-.086.89.106,1.1.983.971a15.756,15.756,0,0,0,8.088-3.969,3.7,3.7,0,0,0,.864-4.166,3.685,3.685,0,0,0-3.465-2.3" transform="translate(0 0)" fill="#2aa8e6"/>
    <path id="パス_141" data-name="パス 141" d="M46.144,204.364V228.85h-.592q-8.08,0-16.159,0a3.536,3.536,0,0,1-3.845-3.9q0-9.985,0-19.97v-.619Z" transform="translate(-22.112 -176.35)" fill="#2aa8e6"/>
    <path id="パス_142" data-name="パス 142" d="M250.773,204.454v.472q0,10.121,0,20.243a3.473,3.473,0,0,1-2.546,3.605,4.257,4.257,0,0,1-1.112.147q-8.267.013-16.534.005c-.121,0-.243-.012-.394-.02V204.454Z" transform="translate(-199.226 -176.428)" fill="#2aa8e6"/>
  </g>
</svg>
