<svg xmlns="http://www.w3.org/2000/svg" xmlns:xlink="http://www.w3.org/1999/xlink" width="30" height="30" viewBox="0 0 30 30">
  <defs>
    <clipPath id="clip-path">
      <rect id="長方形_12" data-name="長方形 12" width="30" height="30" fill="#2aa8e6"/>
    </clipPath>
  </defs>
  <g id="グループ_8" data-name="グループ 8" transform="translate(0 0)">
    <g id="グループ_7" data-name="グループ 7" transform="translate(0 0)" clip-path="url(#clip-path)">
      <path id="パス_65" data-name="パス 65" d="M5.114.008c-.671,0-1.341,0-2.011,0C.832.021-.092.935.008,3.2A27.112,27.112,0,0,0,11.545,24.833,26.712,26.712,0,0,0,27.044,30c1.827.045,2.829-.757,2.9-2.41.079-1.828.068-3.664-.008-5.492a2.19,2.19,0,0,0-2.118-2.324c-.931-.094-1.89-.218-2.778-.318-3.715-.419-5.687-.293-7.937,1.956a.851.851,0,0,1-1.173.152A19.126,19.126,0,0,1,9.57,15.934c-1.593-2.217-1.537-2.254.124-4.506.4-.538.78-1.087,1.163-1.635A2.11,2.11,0,0,0,11.206,8a39.2,39.2,0,0,1-.963-5.795A2.34,2.34,0,0,0,7.661.014c-.848-.03-1.7-.005-2.547-.007" transform="translate(0 0)" fill="#2aa8e6"/>
    </g>
  </g>
</svg>
