<svg xmlns="http://www.w3.org/2000/svg" width="34" height="30" viewBox="0 0 34 30">
  <g id="グループ_10" data-name="グループ 10" transform="translate(0 0)">
    <path id="パス_66" data-name="パス 66" d="M34,12.752a11.338,11.338,0,0,1-2.564,6.478,23.964,23.964,0,0,1-5.789,5.257c-2.4,1.6-4.881,3.08-7.344,4.589a9.807,9.807,0,0,1-1.657.765c-.925.349-1.219.141-1.148-.774.046-.592.14-1.181.184-1.773.087-1.166-.1-1.462-1.3-1.794-1.029-.284-2.1-.435-3.13-.721a17.6,17.6,0,0,1-7.711-4.143C-1.19,16.072-1.194,9.4,3.609,4.879A18.25,18.25,0,0,1,13.9.221a21.451,21.451,0,0,1,9.059.624C27.95,2.3,31.778,5.034,33.407,9.9A23.612,23.612,0,0,1,34,12.752m-14.029.8c-.2-.238-.308-.365-.414-.493-.9-1.1-1.79-2.207-2.716-3.289-.29-.339-.57-.818-1.2-.581-.581.219-.487.731-.493,1.152-.023,1.8-.012,3.6,0,5.4a2.838,2.838,0,0,0,.089.686.7.7,0,0,0,.769.549.564.564,0,0,0,.605-.614c.027-.608.019-1.218.06-1.825.045-.663.128-1.325.2-1.987l.184-.044c.58.721,1.154,1.445,1.74,2.161.568.693,1.127,1.393,1.729,2.059a.7.7,0,0,0,1.208-.294,1.846,1.846,0,0,0,.079-.536q.008-2.846,0-5.692a1.887,1.887,0,0,0-.093-.584.705.705,0,0,0-1.057-.366,1.067,1.067,0,0,0-.542,1.008c-.041,1.051-.089,2.1-.141,3.295M24.8,10.733c.463,0,.87.025,1.272-.006a8.806,8.806,0,0,0,1.564-.209c.244-.064.576-.332.591-.527.019-.238-.219-.523-.412-.736a.8.8,0,0,0-.53-.183c-1.092-.01-2.186-.031-3.275.024-.691.035-.818.191-.824.846-.017,1.928-.008,3.856,0,5.784a2.577,2.577,0,0,0,.084.535.856.856,0,0,0,.869.728c.845.037,1.691.078,2.536.064A2.157,2.157,0,0,0,27.68,16.8a1.029,1.029,0,0,0,.509-.692c0-.2-.312-.5-.556-.593a4.225,4.225,0,0,0-1.139-.169c-.523-.046-1.047-.07-1.592-.1V13.9c.9-.066,1.774-.105,2.643-.213a.928.928,0,0,0,.616-.423c.284-.56,0-.951-.744-1.034-.867-.1-1.74-.155-2.618-.23ZM7.8,15.34c0-.85.011-1.64,0-2.43-.018-1.022-.04-2.044-.093-3.065a.815.815,0,0,0-.793-.786.827.827,0,0,0-.839.691,1.462,1.462,0,0,0-.055.341q0,2.844.008,5.688a3.281,3.281,0,0,0,.08.488.745.745,0,0,0,.779.678c1.162.01,2.324-.012,3.485-.045a.6.6,0,0,0,.658-.633.733.733,0,0,0-.663-.863,7.421,7.421,0,0,0-.949-.062c-.525-.01-1.051,0-1.617,0m4.225-2.263H12c0,1.006-.027,2.013.011,3.017a.828.828,0,0,0,.831.856.778.778,0,0,0,.81-.859c.048-1.978.056-3.957.076-5.935a1.413,1.413,0,0,0-.05-.293c-.091-.436-.284-.8-.826-.821a.8.8,0,0,0-.811.87c-.043,1.053-.012,2.109-.012,3.164" transform="translate(0 0)" fill="#fff"/>
    <rect id="長方形_13" data-name="長方形 13" width="31.387" height="30" fill="none"/>
  </g>
</svg>
