<svg xmlns="http://www.w3.org/2000/svg" xmlns:xlink="http://www.w3.org/1999/xlink" width="47" height="42.992" viewBox="0 0 47 42.992">
  <defs>
    <clipPath id="clip-path">
      <rect id="長方形_35" data-name="長方形 35" width="47" height="42.992" fill="#fbff00"/>
    </clipPath>
  </defs>
  <g id="グループ_94" data-name="グループ 94" transform="translate(0 0)">
    <g id="グループ_28" data-name="グループ 28" transform="translate(0 0)" clip-path="url(#clip-path)">
      <path id="パス_112" data-name="パス 112" d="M18.6,23.494a2.679,2.679,0,1,1-3.684-.881,2.679,2.679,0,0,1,3.684.881" transform="translate(9.462 15.417)" fill="#fbff00"/>
      <path id="パス_113" data-name="パス 113" d="M19.218,28.039a1.687,1.687,0,0,1-.8-.2L.9,18.48a1.693,1.693,0,1,1,1.594-2.986l17.525,9.357a1.694,1.694,0,0,1-.8,3.188" transform="translate(0 10.613)" fill="#fbff00"/>
      <path id="パス_114" data-name="パス 114" d="M24.98,19.574a2.679,2.679,0,1,0,.881-3.684,2.679,2.679,0,0,0-.881,3.684" transform="translate(17.06 10.751)" fill="#fbff00"/>
      <path id="パス_115" data-name="パス 115" d="M27.017,23.251a1.7,1.7,0,0,1-1.694-1.658L24.9,1.731A1.7,1.7,0,0,1,26.558,0h.036a1.7,1.7,0,0,1,1.694,1.658l.423,19.863a1.7,1.7,0,0,1-1.658,1.73Z" transform="translate(17.278 0)" fill="#fbff00"/>
      <path id="パス_116" data-name="パス 116" d="M23.126,19.27a2.679,2.679,0,1,1-2.761-2.593,2.678,2.678,0,0,1,2.761,2.593" transform="translate(12.331 11.571)" fill="#fbff00"/>
      <path id="パス_117" data-name="パス 117" d="M22,23.894a1.694,1.694,0,0,1-1.436-.793L10,6.279a1.694,1.694,0,0,1,2.868-1.8L23.433,21.3A1.694,1.694,0,0,1,22,23.894" transform="translate(6.757 2.556)" fill="#fbff00"/>
    </g>
  </g>
</svg>
