<svg xmlns="http://www.w3.org/2000/svg" xmlns:xlink="http://www.w3.org/1999/xlink" width="392.845" height="171.904" viewBox="0 0 392.845 171.904">
  <defs>
    <clipPath id="clip-path">
      <rect id="長方形_100" data-name="長方形 100" width="392.845" height="117.428" fill="#aa4f12"/>
    </clipPath>
  </defs>
  <g id="グループ_173" data-name="グループ 173" transform="translate(-640.971 -1439.946)">
    <path id="パス_179" data-name="パス 179" d="M24.35-19.15H45.6c1.95,0,3.15-.7,3.15-2.85,0-2.6-1.9-2.85-3.15-2.85H4.2a2.714,2.714,0,0,0-3.1,3c0,2.7,1.85,2.7,3.4,2.7V-3.5c-1.95.2-3.45.3-3.45,2.85,0,2.5,1.3,3.45,2.75,3.45A120.1,120.1,0,0,0,17.25,1c0,2,0,3.85,3.7,3.85,3.35,0,3.4-2.3,3.4-3.2Zm-7.1,8.55H11.3v-2.15h5.95Zm0-6.3H11.3v-2.25h5.95ZM11.3-6.5h5.95v1.8c-2.85.35-3.15.4-5.95.65ZM44.95-35.55c0-5.3-1.1-6.15-6.2-6.15H11.15c-5.2,0-6.2.95-6.2,6.15v3.05c0,5.25,1.05,6.15,6.2,6.15h27.6c5.2,0,6.2-.95,6.2-6.15Zm-32.5.05v-.85a.8.8,0,0,1,.9-.9h23.1a.832.832,0,0,1,.95.9v.85ZM37.4-31.25a.867.867,0,0,1-.95.95H13.35a.832.832,0,0,1-.9-.95v-.95H37.4Zm-9.5,13.7c-1.15,0-3.1.2-3.1,2.8,0,2.05,1.15,2.8,3.1,2.8h.75a2.784,2.784,0,0,0-1.8,2.55c0,.75.1,1.2,2.35,4.05A16.5,16.5,0,0,0,30.8-3.5a27.779,27.779,0,0,1-3.45,1.25c-1.6.45-2.7.95-2.7,2.9,0,1.75.85,3.75,3.3,3.75.9,0,3.7-.5,8.35-3.5,5.05,3.25,7.65,3.6,8.55,3.6A3.828,3.828,0,0,0,48.4.55c0-1.9-1.25-2.45-2.6-2.85a28.12,28.12,0,0,1-4-1.55c2.3-2.55,4.9-6.9,4.9-10.2,0-3.5-2.6-3.5-4.95-3.5Zm9.95,5.6c.7,0,1.15,0,1.15.55,0,.4-.55,1.8-2.75,4.1a22.252,22.252,0,0,1-2.85-3.1,4.617,4.617,0,0,0-1.75-1.55ZM70-23.9C67.75-12.85,62.3-8.1,54.55-3.8c-1.05.6-2.5,1.4-2.5,3.7,0,1.95,1.65,4.4,4,4.4,1.3,0,2.75-.65,5.6-2.65A36.627,36.627,0,0,0,75-14.5,37.939,37.939,0,0,0,82.5-3.2c1.8,1.8,8,7.55,11.45,7.55,2.3,0,4-2.3,4-4.45,0-2.3-1.5-3.05-2.55-3.6-7.85-4.15-12.95-8.6-15.55-20.2h14.9c3,0,4.05-1.45,4.05-4,0-2.7-1.85-3.6-4.05-3.6h-16v-7.85c0-2.8-1.65-3.5-4.25-3.5-2.2,0-3.65,1.05-3.65,3.5v7.85H55.25c-3,0-4.05,1.45-4.05,4,0,2.75,1.85,3.6,4.05,3.6Zm246.69-9.9h22.4c2.5,0,3.7-1.1,3.7-3.95,0-3.45-2.85-3.45-3.7-3.45H298.94c-2.65,0-3.7,1.15-3.7,3.9,0,3.5,2.85,3.5,3.7,3.5h9.95v4.6c0,7.35-.95,18.35-11.25,25.9-1.3.95-2,1.6-2,3.05,0,2.1,1.85,4.7,4.4,4.7.75,0,1.65,0,4.7-2.75,8.75-7.9,10.45-18.1,11.15-22.5h12.75c1.5,0,1.65.95,1.65,1.7a100.464,100.464,0,0,1-1.05,11.45c-.6,3.3-1.4,4.55-3.95,4.55-.5,0-3.05-.1-3.65-.1-1,0-3.7,0-3.7,3.65a4.622,4.622,0,0,0,1.05,3.15c.95,1,1.85,1,6.7,1,5.15,0,8.35,0,10.25-4.95,1.85-4.9,2.5-20.05,2.5-21.2,0-6.25-4.3-6.45-6.9-6.45h-14.9c0-.3.05-.7.05-1Zm66.25,20.15v8.6c0,1.55-.5,1.85-2.1,1.85-.5,0-3.2-.05-3.25-.05-2,0-3.85.85-3.85,3.95,0,3.95,2.7,3.95,7.45,3.95,5.4,0,9.4,0,9.4-6.9V-34.4c0-5.4-2.5-6.85-6.85-6.85H353.99c-3.65,0-6.5,1.4-6.5,6.5V1.1c0,2.7,1.2,3.75,4.15,3.75,3.35,0,3.55-2.45,3.55-3.75V-13.65Zm-27.75-7.2V-32.2a1.5,1.5,0,0,1,1.65-1.65h8.45v13Zm17.6-13h8.5a1.478,1.478,0,0,1,1.65,1.65v11.35H372.79Z" transform="translate(640 1607)" fill="#222"/>
    <path id="パス_181" data-name="パス 181" d="M97.95-.1c0-2.3.85-25.25.85-27.8C98.8-30.6,97.95,2.05,97.95-.1Zm29.294-15.188c23.912-20.188,31.164-27.93,31.164-40.376,0-14.994-11.27-24.7-26.264-24.7-14.7,0-26.068,9.408-26.068,14.9a8.058,8.058,0,0,0,8.036,8.036c2.156,0,2.744-.49,6.468-3.332a18.966,18.966,0,0,1,11.564-4.312c6.174,0,9.6,5.194,9.6,10,0,5.39-3.626,9.506-9.31,15.19C126.754-34.3,118.032-26.46,112.446-22.05c-7.154,5.684-9.506,7.546-9.506,13.23C102.94,0,109.9,0,116.464,0H154.39c5.488,0,7.84-2.548,7.84-7.742,0-6.762-4.606-7.546-7.84-7.546ZM197.118,1.568a25.682,25.682,0,0,0,22.344-12.054c4.41-6.958,6.37-16.66,6.37-28.91,0-6.958-.588-19.8-6.468-29.008A26.069,26.069,0,0,0,197.118-80.36,25.839,25.839,0,0,0,174.872-68.5c-3.92,6.174-6.566,14.994-6.566,29.106C168.306-32.536,168.306,1.568,197.118,1.568Zm0-15.288c-8.82,0-12.152-9.8-12.152-25.676,0-14.6,2.842-25.676,12.152-25.676,8.526,0,12.152,9.408,12.152,25.676C209.27-24.794,206.33-13.72,197.118-13.72ZM261.8,1.568a25.682,25.682,0,0,0,22.344-12.054c4.41-6.958,6.37-16.66,6.37-28.91,0-6.958-.588-19.8-6.468-29.008A26.069,26.069,0,0,0,261.8-80.36,25.839,25.839,0,0,0,239.552-68.5c-3.92,6.174-6.566,14.994-6.566,29.106C232.986-32.536,232.986,1.568,261.8,1.568Zm0-15.288c-8.82,0-12.152-9.8-12.152-25.676,0-14.6,2.842-25.676,12.152-25.676,8.526,0,12.152,9.408,12.152,25.676C273.95-24.794,271.01-13.72,261.8-13.72Z" transform="translate(640 1607)" fill="#004a8c"/>
    <g id="グループ_127" data-name="グループ 127" transform="translate(640.971 1439.946)">
      <g id="グループ_121" data-name="グループ 121" transform="translate(0 0)" clip-path="url(#clip-path)">
        <path id="パス_153" data-name="パス 153" d="M73.979,21.56l6.868,29.03,6.868,32.825A276.186,276.186,0,0,0,56.746,95.03,185.675,185.675,0,0,0,31.2,108.824l8.46-43.514L0,48.361q1.671-.823,3.366-1.637T6.79,45.108c10.155-4.7,20.886-9.023,32.112-12.954S61.847,24.686,73.979,21.56" transform="translate(0 8.605)" fill="#f35d2e"/>
        <path id="パス_154" data-name="パス 154" d="M305.808,48.361,265.937,65.309l8.676,43.514a185.328,185.328,0,0,0-25.539-13.8A276.94,276.94,0,0,0,218.091,83.4l6.87-32.818,6.868-29.023c12.14,3.126,23.86,6.664,35.083,10.594s21.95,8.255,32.1,12.954q1.729.8,3.425,1.612t3.366,1.641" transform="translate(87.037 8.605)" fill="#f35d2e"/>
        <path id="パス_155" data-name="パス 155" d="M51.938,65.666,66.988,68.8,64.8,58.177Z" transform="translate(20.728 23.218)" fill="#a13d1e"/>
        <path id="パス_156" data-name="パス 156" d="M233.141,65.971l-15.05,3.135,2.465-11.727Z" transform="translate(87.037 22.9)" fill="#a13d1e"/>
        <path id="パス_157" data-name="パス 157" d="M179.453,0C131,0,84.2,7.037,42.538,20.3L55.689,88.884c35.061-13.487,78-21.546,123.763-21.546S268.141,75.4,303.2,88.87L316.353,20.3C274.688,7.037,227.889,0,179.453,0" transform="translate(16.976 0)" fill="#f35d2e"/>
      </g>
    </g>
    <path id="パス_180" data-name="パス 180" d="M-52.076,1.551c0,.893,0,2.961,3.055,2.961,3.008,0,3.149-1.786,3.149-2.961v-7.1h3.619V1.175c0,.8,0,2.961,2.961,2.961,3.008,0,3.008-2.162,3.008-2.961V-5.734h3.854v2.35c0,.893-.094,1.128-1.034,1.175-.564.047-2.115.141-2.115,2.867,0,3.619,2.162,3.619,4.794,3.619,4.042,0,4.794-2.3,4.794-5.029V-21.9c0-4.418-2.068-5.593-5.546-5.593h-4.371v-1.739h8.46c.8,0,2.961,0,2.961-3.008,0-2.35-.987-3.055-2.4-3.2a1.3,1.3,0,0,0,.141-.611A3.859,3.859,0,0,0-28.2-38.634c-1.363-1.41-1.739-1.645-2.632-1.645-1.6,0-3.478,1.175-3.478,2.585,0,.752.329,1.128,1.269,2.256h-2.867v-1.88c0-.846,0-3.008-3.2-3.008s-3.572,1.41-3.572,3.008v1.88h-8.272c-.94,0-3.055,0-2.961,3.243-.8-1.457-2.209-1.457-3.525-1.457v-3.2c0-.8,0-3.478-3.2-3.478-2.82,0-3.525,1.41-3.525,3.478v3.2h-1.833c-1.034,0-3.431.094-3.431,3.1,0,2.35.8,3.572,3.431,3.572h4.183c.235,0,.8,0,.8.564,0,.376-1.88,3.9-5.969,7.8-2.914,2.82-3.055,2.961-3.055,4.183,0,2.068,1.833,4.23,3.854,4.23a3.418,3.418,0,0,0,2.021-.752V1.081c0,.987.047,3.431,3.149,3.431,2.35,0,3.572-.8,3.572-3.431v-12.69c1.833,1.786,2.491,2.4,3.431,2.4a2.354,2.354,0,0,0,1.927-1.081ZM-42.253-10.9h-3.619v-2.632h3.619Zm-9.823-3.2c-.423-.376-.611-.47-2.4-1.739a31.436,31.436,0,0,1-2.961-2.4v-1.128c2.538-4.277,4.136-7.191,3.9-11.139a2.462,2.462,0,0,0,2.585,1.269h8.272V-27.5h-3.807c-2.068,0-5.076.282-5.546,4.23a1.667,1.667,0,0,0-.611-.141c-1.222,0-1.5.611-2.444,2.35-.893,1.739-.987,1.927-.987,2.35a1.956,1.956,0,0,0,2.021,1.927c.376,0,.987,0,1.974-1.551Zm9.823-4.794h-3.619v-1.739a.816.816,0,0,1,.893-.893h2.726Zm8.93-2.632a.8.8,0,0,1,.893.893v1.739h-3.854v-2.632ZM-32.43-10.9h-3.854v-2.632h3.854Zm12.314,5.546C-21.338-5.17-22.8-4.794-22.8-2.3c0,.423,0,3.666,2.82,3.666,2.4,0,11.045-2.068,15.651-3.2C-5.452-.517-6.016.141-6.016,1.316A3.773,3.773,0,0,0-2.162,4.7c1.269,0,2.068-.423,4.277-3.1,6.533-7.99,7.52-17.3,8.037-25.9h2.4c.987,0,1.41,0,1.41,1.222,0,3.9-.141,11.938-.564,15.557-.423,3.854-.846,4.324-1.88,4.418-.423.047-2.538,0-3.008,0-2.679,0-3.29,1.974-3.29,3.619,0,3.807,2.726,3.807,4.841,3.807,5.593,0,7.708-.282,9.071-3.525C21.009-3.619,21.1-23.077,21.1-25.333c0-5.922-3.149-5.969-7.1-5.969H10.293V-36.9c0-2.585-1.081-3.431-3.666-3.431-2.961,0-3.2,2.021-3.2,3.431V-31.3H.423a3.1,3.1,0,0,0-1.786.564v-2.068c0-4.324-2.021-5.593-5.593-5.593h-7.567c-3.619,0-5.593,1.269-5.593,5.593ZM-1.363-24.863A2.869,2.869,0,0,0,.423-24.3H3.337C2.914-17.343,2.491-13.207.423-8.6a2.609,2.609,0,0,0-1.786-.282ZM-7.8-17.954H-13.63v-4.089H-7.8Zm0,10.481c-3.807.752-4.042.8-5.828,1.128v-5.734H-7.8Zm-5.828-23.5a.767.767,0,0,1,.846-.846h4.136a.748.748,0,0,1,.846.846v3.1H-13.63ZM43.381-22v3.1H29.61c-.94,0-3.431.094-3.431,3.1,0,2.4.846,3.572,3.431,3.572h3.431c-.517.235-1.974.8-1.974,2.3,0,.611.094.846,1.034,3.055.141.282,1.081,2.4,1.175,2.585a2.039,2.039,0,0,0,.564.658H28.576c-1.034,0-3.478.094-3.478,3.1,0,2.4.846,3.572,3.478,3.572H65.142c1.081,0,3.431-.094,3.431-3.1,0-2.4-.846-3.572-3.431-3.572H59.878c1.081-.94,2.726-5.311,2.726-6.439,0-.47-.188-1.5-1.786-2.162h3.337c1.034,0,3.431-.094,3.431-3.1,0-2.4-.8-3.572-3.431-3.572H50.337V-22h6.768c2.961,0,3.29-1.551,3.384-2.82,3.2,1.692,4.23,2.021,5.123,2.021,2.538,0,3.666-2.726,3.666-4.512,0-2.021-1.363-2.585-2.585-3.055a53.757,53.757,0,0,1-12.079-6.862c-4.042-2.961-4.512-3.337-7.332-3.337-3.055,0-3.76.517-6.956,2.961-5.546,4.183-7.191,4.841-12.972,7.191a3.382,3.382,0,0,0-2.585,3.2c0,1.927,1.316,4.371,3.431,4.371,1.269,0,3.666-1.222,5.217-2.021.047,1.692.8,2.867,3.384,2.867Zm0,9.776v8.6H38.728A1.9,1.9,0,0,0,39.9-5.405a12.858,12.858,0,0,0-1.316-4.277c-.8-1.88-1.081-2.209-1.645-2.538Zm6.956,8.6v-8.6h6.345c-.705.47-.893.987-1.5,2.632-.235.658-.893,1.974-.987,2.162a4,4,0,0,0-.517,1.739A2.376,2.376,0,0,0,54.99-3.619ZM39.574-28.435A43.023,43.023,0,0,0,46.2-33.887a1.244,1.244,0,0,1,.893-.564c.329,0,.423.188.893.611a48.855,48.855,0,0,0,6.674,5.4Z" transform="translate(835 1493)" fill="#fff"/>
  </g>
</svg>
